<mxfile host="app.diagrams.net" modified="2024-06-20T06:36:34.609Z" agent="Mozilla/5.0 (Windows NT 10.0; Win64; x64) AppleWebKit/537.36 (KHTML, like Gecko) Chrome/125.0.0.0 Safari/537.36" etag="U_mz07UxQYxYcyYn-hpO" version="24.5.5" type="device" pages="4">
  <diagram name="Page-1" id="2YBvvXClWsGukQMizWep">
    <mxGraphModel dx="1050" dy="522" grid="1" gridSize="10" guides="1" tooltips="1" connect="1" arrows="1" fold="1" page="1" pageScale="1" pageWidth="850" pageHeight="1100" math="0" shadow="0">
      <root>
        <mxCell id="0" />
        <mxCell id="1" parent="0" />
        <mxCell id="aM9ryv3xv72pqoxQDRHE-1" value=":Object" style="shape=umlLifeline;perimeter=lifelinePerimeter;whiteSpace=wrap;html=1;container=0;dropTarget=0;collapsible=0;recursiveResize=0;outlineConnect=0;portConstraint=eastwest;newEdgeStyle={&quot;edgeStyle&quot;:&quot;elbowEdgeStyle&quot;,&quot;elbow&quot;:&quot;vertical&quot;,&quot;curved&quot;:0,&quot;rounded&quot;:0};" parent="1" vertex="1">
          <mxGeometry x="40" y="40" width="100" height="300" as="geometry" />
        </mxCell>
        <mxCell id="aM9ryv3xv72pqoxQDRHE-2" value="" style="html=1;points=[];perimeter=orthogonalPerimeter;outlineConnect=0;targetShapes=umlLifeline;portConstraint=eastwest;newEdgeStyle={&quot;edgeStyle&quot;:&quot;elbowEdgeStyle&quot;,&quot;elbow&quot;:&quot;vertical&quot;,&quot;curved&quot;:0,&quot;rounded&quot;:0};" parent="aM9ryv3xv72pqoxQDRHE-1" vertex="1">
          <mxGeometry x="45" y="70" width="10" height="190" as="geometry" />
        </mxCell>
        <mxCell id="aM9ryv3xv72pqoxQDRHE-3" value="dispatch" style="html=1;verticalAlign=bottom;startArrow=oval;endArrow=block;startSize=8;edgeStyle=elbowEdgeStyle;elbow=vertical;curved=0;rounded=0;" parent="aM9ryv3xv72pqoxQDRHE-1" target="aM9ryv3xv72pqoxQDRHE-2" edge="1">
          <mxGeometry relative="1" as="geometry">
            <mxPoint x="-15" y="70" as="sourcePoint" />
          </mxGeometry>
        </mxCell>
        <mxCell id="aM9ryv3xv72pqoxQDRHE-4" value="" style="html=1;points=[];perimeter=orthogonalPerimeter;outlineConnect=0;targetShapes=umlLifeline;portConstraint=eastwest;newEdgeStyle={&quot;edgeStyle&quot;:&quot;elbowEdgeStyle&quot;,&quot;elbow&quot;:&quot;vertical&quot;,&quot;curved&quot;:0,&quot;rounded&quot;:0};" parent="aM9ryv3xv72pqoxQDRHE-1" vertex="1">
          <mxGeometry x="50" y="120" width="10" height="80" as="geometry" />
        </mxCell>
        <mxCell id="aM9ryv3xv72pqoxQDRHE-5" value=":Object" style="shape=umlLifeline;perimeter=lifelinePerimeter;whiteSpace=wrap;html=1;container=0;dropTarget=0;collapsible=0;recursiveResize=0;outlineConnect=0;portConstraint=eastwest;newEdgeStyle={&quot;edgeStyle&quot;:&quot;elbowEdgeStyle&quot;,&quot;elbow&quot;:&quot;vertical&quot;,&quot;curved&quot;:0,&quot;rounded&quot;:0};" parent="1" vertex="1">
          <mxGeometry x="220" y="40" width="100" height="300" as="geometry" />
        </mxCell>
        <mxCell id="aM9ryv3xv72pqoxQDRHE-6" value="" style="html=1;points=[];perimeter=orthogonalPerimeter;outlineConnect=0;targetShapes=umlLifeline;portConstraint=eastwest;newEdgeStyle={&quot;edgeStyle&quot;:&quot;elbowEdgeStyle&quot;,&quot;elbow&quot;:&quot;vertical&quot;,&quot;curved&quot;:0,&quot;rounded&quot;:0};" parent="aM9ryv3xv72pqoxQDRHE-5" vertex="1">
          <mxGeometry x="45" y="80" width="10" height="170" as="geometry" />
        </mxCell>
        <mxCell id="aM9ryv3xv72pqoxQDRHE-7" value="dispatch" style="html=1;verticalAlign=bottom;endArrow=block;edgeStyle=elbowEdgeStyle;elbow=vertical;curved=0;rounded=0;" parent="1" source="aM9ryv3xv72pqoxQDRHE-2" target="aM9ryv3xv72pqoxQDRHE-6" edge="1">
          <mxGeometry relative="1" as="geometry">
            <mxPoint x="195" y="130" as="sourcePoint" />
            <Array as="points">
              <mxPoint x="180" y="120" />
            </Array>
          </mxGeometry>
        </mxCell>
        <mxCell id="aM9ryv3xv72pqoxQDRHE-8" value="return" style="html=1;verticalAlign=bottom;endArrow=open;dashed=1;endSize=8;edgeStyle=elbowEdgeStyle;elbow=vertical;curved=0;rounded=0;" parent="1" source="aM9ryv3xv72pqoxQDRHE-6" target="aM9ryv3xv72pqoxQDRHE-2" edge="1">
          <mxGeometry relative="1" as="geometry">
            <mxPoint x="195" y="205" as="targetPoint" />
            <Array as="points">
              <mxPoint x="190" y="280" />
            </Array>
          </mxGeometry>
        </mxCell>
        <mxCell id="aM9ryv3xv72pqoxQDRHE-9" value="callback" style="html=1;verticalAlign=bottom;endArrow=block;edgeStyle=elbowEdgeStyle;elbow=vertical;curved=0;rounded=0;" parent="1" source="aM9ryv3xv72pqoxQDRHE-6" target="aM9ryv3xv72pqoxQDRHE-4" edge="1">
          <mxGeometry relative="1" as="geometry">
            <mxPoint x="175" y="160" as="sourcePoint" />
            <Array as="points">
              <mxPoint x="190" y="160" />
            </Array>
          </mxGeometry>
        </mxCell>
        <mxCell id="aM9ryv3xv72pqoxQDRHE-10" value="return" style="html=1;verticalAlign=bottom;endArrow=open;dashed=1;endSize=8;edgeStyle=elbowEdgeStyle;elbow=vertical;curved=0;rounded=0;" parent="1" source="aM9ryv3xv72pqoxQDRHE-4" target="aM9ryv3xv72pqoxQDRHE-6" edge="1">
          <mxGeometry relative="1" as="geometry">
            <mxPoint x="175" y="235" as="targetPoint" />
            <Array as="points">
              <mxPoint x="180" y="230" />
            </Array>
          </mxGeometry>
        </mxCell>
        <mxCell id="ILPLqNoYoGLu4L-n1jHs-1" value="" style="shape=curlyBracket;whiteSpace=wrap;html=1;rounded=1;labelPosition=left;verticalLabelPosition=middle;align=right;verticalAlign=middle;rotation=90;fontFamily=Times New Roman;" parent="1" vertex="1">
          <mxGeometry x="235" y="620" width="10" height="80" as="geometry" />
        </mxCell>
        <mxCell id="ILPLqNoYoGLu4L-n1jHs-2" value="" style="shape=curlyBracket;whiteSpace=wrap;html=1;rounded=1;labelPosition=left;verticalLabelPosition=middle;align=right;verticalAlign=middle;rotation=0;fontFamily=Times New Roman;" parent="1" vertex="1">
          <mxGeometry x="215" y="680" width="10" height="80" as="geometry" />
        </mxCell>
        <mxCell id="ILPLqNoYoGLu4L-n1jHs-3" value="" style="shape=curlyBracket;whiteSpace=wrap;html=1;rounded=1;labelPosition=left;verticalLabelPosition=middle;align=right;verticalAlign=middle;rotation=-90;fontFamily=Times New Roman;" parent="1" vertex="1">
          <mxGeometry x="245" y="640" width="10" height="20" as="geometry" />
        </mxCell>
        <mxCell id="ILPLqNoYoGLu4L-n1jHs-4" value="" style="shape=curlyBracket;whiteSpace=wrap;html=1;rounded=1;labelPosition=left;verticalLabelPosition=middle;align=right;verticalAlign=middle;rotation=90;fontFamily=Times New Roman;direction=south;" parent="1" vertex="1">
          <mxGeometry x="210" y="635" width="20" height="10" as="geometry" />
        </mxCell>
        <mxCell id="ILPLqNoYoGLu4L-n1jHs-5" value="" style="rhombus;whiteSpace=wrap;html=1;fontFamily=Times New Roman;" parent="1" vertex="1">
          <mxGeometry x="315" y="650" width="20" height="20" as="geometry" />
        </mxCell>
        <mxCell id="ILPLqNoYoGLu4L-n1jHs-6" value="" style="rounded=0;whiteSpace=wrap;html=1;direction=south;fontFamily=Times New Roman;" parent="1" vertex="1">
          <mxGeometry x="345" y="645" width="17.5" height="30" as="geometry" />
        </mxCell>
      </root>
    </mxGraphModel>
  </diagram>
  <diagram id="YzaBM3xuPa5x19UGZU6Q" name="Page-2">
    <mxGraphModel dx="1502" dy="556" grid="1" gridSize="10" guides="1" tooltips="1" connect="1" arrows="1" fold="1" page="1" pageScale="1" pageWidth="850" pageHeight="1100" math="0" shadow="0">
      <root>
        <mxCell id="0" />
        <mxCell id="1" parent="0" />
        <mxCell id="C8dXw3uoqzPCMPNrL15S-35" style="edgeStyle=orthogonalEdgeStyle;rounded=0;orthogonalLoop=1;jettySize=auto;html=1;curved=1;endArrow=none;endFill=0;fontFamily=Times New Roman;" parent="1" source="EGW35Ph5s0UdULNGLlET-12" target="C8dXw3uoqzPCMPNrL15S-30" edge="1">
          <mxGeometry relative="1" as="geometry" />
        </mxCell>
        <mxCell id="C8dXw3uoqzPCMPNrL15S-71" value="" style="edgeStyle=orthogonalEdgeStyle;rounded=0;orthogonalLoop=1;jettySize=auto;html=1;endArrow=none;endFill=0;" parent="1" source="EGW35Ph5s0UdULNGLlET-12" target="C8dXw3uoqzPCMPNrL15S-49" edge="1">
          <mxGeometry relative="1" as="geometry" />
        </mxCell>
        <mxCell id="EGW35Ph5s0UdULNGLlET-12" value="" style="whiteSpace=wrap;html=1;aspect=fixed;labelBorderColor=none;labelBackgroundColor=none;fillColor=#CCCCCC;strokeColor=#000000;fontFamily=Times New Roman;" parent="1" vertex="1">
          <mxGeometry x="277" y="200" width="65" height="65" as="geometry" />
        </mxCell>
        <mxCell id="C8dXw3uoqzPCMPNrL15S-5" value="Different Subjects of Study in &lt;br&gt;Empirical Legal Studies in the EU" style="text;strokeColor=none;fillColor=none;html=1;fontSize=24;fontStyle=1;verticalAlign=middle;align=center;fontFamily=Times New Roman;" parent="1" vertex="1">
          <mxGeometry x="215" y="30" width="420" height="90" as="geometry" />
        </mxCell>
        <mxCell id="C8dXw3uoqzPCMPNrL15S-6" value="&lt;b&gt;MS Court&lt;/b&gt;" style="text;html=1;align=center;verticalAlign=middle;whiteSpace=wrap;rounded=0;fontFamily=Times New Roman;" parent="1" vertex="1">
          <mxGeometry x="287" y="157" width="60" height="30" as="geometry" />
        </mxCell>
        <mxCell id="C8dXw3uoqzPCMPNrL15S-7" value="&lt;font style=&quot;font-size: 6px;&quot;&gt;Art. 267&amp;nbsp;&lt;br style=&quot;&quot;&gt;Preliminary Reference&lt;/font&gt;" style="text;html=1;align=center;verticalAlign=middle;whiteSpace=wrap;rounded=0;fontSize=7;fontFamily=Times New Roman;" parent="1" vertex="1">
          <mxGeometry x="387" y="157" width="40" height="30" as="geometry" />
        </mxCell>
        <mxCell id="C8dXw3uoqzPCMPNrL15S-14" value="" style="shape=curlyBracket;whiteSpace=wrap;html=1;rounded=1;labelPosition=left;verticalLabelPosition=middle;align=right;verticalAlign=middle;rotation=90;size=0.5;fontFamily=Times New Roman;" parent="1" vertex="1">
          <mxGeometry x="402" y="180" width="10" height="20" as="geometry" />
        </mxCell>
        <mxCell id="C8dXw3uoqzPCMPNrL15S-16" value="&lt;b&gt;ECJ&lt;/b&gt;" style="text;html=1;align=center;verticalAlign=middle;whiteSpace=wrap;rounded=0;fontFamily=Times New Roman;" parent="1" vertex="1">
          <mxGeometry x="486.34" y="150" width="60" height="30" as="geometry" />
        </mxCell>
        <mxCell id="C8dXw3uoqzPCMPNrL15S-33" style="edgeStyle=orthogonalEdgeStyle;rounded=0;orthogonalLoop=1;jettySize=auto;html=1;entryX=0;entryY=0.5;entryDx=0;entryDy=0;curved=1;fontFamily=Times New Roman;" parent="1" source="C8dXw3uoqzPCMPNrL15S-30" target="C8dXw3uoqzPCMPNrL15S-21" edge="1">
          <mxGeometry relative="1" as="geometry" />
        </mxCell>
        <mxCell id="C8dXw3uoqzPCMPNrL15S-30" value="" style="rounded=0;whiteSpace=wrap;html=1;direction=south;fillColor=#CCCCCC;fontFamily=Times New Roman;" parent="1" vertex="1">
          <mxGeometry x="398.25" y="198" width="17.5" height="30" as="geometry" />
        </mxCell>
        <mxCell id="C8dXw3uoqzPCMPNrL15S-60" value="" style="edgeStyle=orthogonalEdgeStyle;rounded=0;orthogonalLoop=1;jettySize=auto;html=1;endArrow=none;endFill=0;" parent="1" source="C8dXw3uoqzPCMPNrL15S-21" target="C8dXw3uoqzPCMPNrL15S-59" edge="1">
          <mxGeometry relative="1" as="geometry" />
        </mxCell>
        <mxCell id="C8dXw3uoqzPCMPNrL15S-38" value="" style="whiteSpace=wrap;html=1;rounded=0;strokeWidth=0.5;strokeColor=#ae4132;fontFamily=Times New Roman;fillColor=#fad9d5;" parent="1" vertex="1">
          <mxGeometry x="392" y="237" width="30" height="4" as="geometry" />
        </mxCell>
        <mxCell id="C8dXw3uoqzPCMPNrL15S-44" value="" style="whiteSpace=wrap;html=1;rounded=0;strokeWidth=0.5;strokeColor=#ae4132;fontFamily=Times New Roman;fillColor=#fad9d5;" parent="1" vertex="1">
          <mxGeometry x="392" y="257" width="30" height="4" as="geometry" />
        </mxCell>
        <mxCell id="C8dXw3uoqzPCMPNrL15S-46" value="" style="whiteSpace=wrap;html=1;rounded=0;strokeWidth=0.5;strokeColor=#ae4132;fontFamily=Times New Roman;fillColor=#fad9d5;" parent="1" vertex="1">
          <mxGeometry x="392" y="247" width="30" height="4" as="geometry" />
        </mxCell>
        <mxCell id="C8dXw3uoqzPCMPNrL15S-47" value="t&lt;sub style=&quot;font-size: 7px;&quot;&gt;1&lt;/sub&gt;" style="text;html=1;align=center;verticalAlign=middle;whiteSpace=wrap;rounded=0;fontSize=7;fontStyle=1;fontFamily=Times New Roman;" parent="1" vertex="1">
          <mxGeometry x="267" y="267" width="10" height="13" as="geometry" />
        </mxCell>
        <mxCell id="C8dXw3uoqzPCMPNrL15S-48" value="t2" style="text;html=1;align=center;verticalAlign=middle;whiteSpace=wrap;rounded=0;fontSize=7;fontStyle=1;fontFamily=Times New Roman;" parent="1" vertex="1">
          <mxGeometry x="267" y="386" width="10" height="10" as="geometry" />
        </mxCell>
        <mxCell id="C8dXw3uoqzPCMPNrL15S-75" style="rounded=0;orthogonalLoop=1;jettySize=auto;html=1;endArrow=open;endFill=0;exitX=0.5;exitY=0;exitDx=0;exitDy=0;" parent="1" source="C8dXw3uoqzPCMPNrL15S-79" edge="1">
          <mxGeometry relative="1" as="geometry">
            <mxPoint x="310" y="427" as="sourcePoint" />
            <mxPoint x="517" y="457" as="targetPoint" />
          </mxGeometry>
        </mxCell>
        <mxCell id="C8dXw3uoqzPCMPNrL15S-80" style="edgeStyle=orthogonalEdgeStyle;rounded=0;orthogonalLoop=1;jettySize=auto;html=1;entryX=0;entryY=0.5;entryDx=0;entryDy=0;endArrow=none;endFill=0;" parent="1" source="C8dXw3uoqzPCMPNrL15S-49" target="C8dXw3uoqzPCMPNrL15S-79" edge="1">
          <mxGeometry relative="1" as="geometry" />
        </mxCell>
        <mxCell id="C8dXw3uoqzPCMPNrL15S-49" value="" style="whiteSpace=wrap;html=1;aspect=fixed;labelBorderColor=none;labelBackgroundColor=none;fillColor=#CCCCCC;strokeColor=#000000;fontFamily=Times New Roman;" parent="1" vertex="1">
          <mxGeometry x="277" y="321" width="65" height="65" as="geometry" />
        </mxCell>
        <mxCell id="C8dXw3uoqzPCMPNrL15S-50" value="" style="line;strokeWidth=0.5;direction=south;html=1;fontFamily=Times New Roman;" parent="1" vertex="1">
          <mxGeometry x="402" y="228" width="10" height="9" as="geometry" />
        </mxCell>
        <mxCell id="C8dXw3uoqzPCMPNrL15S-51" value="" style="line;strokeWidth=0.5;direction=south;html=1;fontFamily=Times New Roman;" parent="1" vertex="1">
          <mxGeometry x="403.5" y="241" width="7" height="6" as="geometry" />
        </mxCell>
        <mxCell id="C8dXw3uoqzPCMPNrL15S-52" value="" style="line;strokeWidth=0.5;direction=south;html=1;fontFamily=Times New Roman;" parent="1" vertex="1">
          <mxGeometry x="403.5" y="251" width="7" height="6" as="geometry" />
        </mxCell>
        <mxCell id="C8dXw3uoqzPCMPNrL15S-53" value="&lt;span style=&quot;font-weight: normal; font-size: 6px;&quot;&gt;&lt;sub style=&quot;&quot;&gt;Q1&lt;/sub&gt;&lt;/span&gt;" style="text;html=1;align=center;verticalAlign=middle;whiteSpace=wrap;rounded=0;fontSize=7;fontStyle=1;fontFamily=Times New Roman;" parent="1" vertex="1">
          <mxGeometry x="384" y="235" width="5" height="4" as="geometry" />
        </mxCell>
        <mxCell id="C8dXw3uoqzPCMPNrL15S-54" value="&lt;span style=&quot;font-weight: normal; font-size: 6px;&quot;&gt;&lt;sub style=&quot;&quot;&gt;Q2&lt;/sub&gt;&lt;/span&gt;" style="text;html=1;align=center;verticalAlign=middle;whiteSpace=wrap;rounded=0;fontSize=7;fontStyle=1;fontFamily=Times New Roman;" parent="1" vertex="1">
          <mxGeometry x="384" y="245" width="5" height="4" as="geometry" />
        </mxCell>
        <mxCell id="C8dXw3uoqzPCMPNrL15S-55" value="&lt;span style=&quot;font-weight: normal; font-size: 6px;&quot;&gt;&lt;sub style=&quot;&quot;&gt;Q3&lt;/sub&gt;&lt;/span&gt;" style="text;html=1;align=center;verticalAlign=middle;whiteSpace=wrap;rounded=0;fontSize=7;fontStyle=1;fontFamily=Times New Roman;" parent="1" vertex="1">
          <mxGeometry x="384" y="255" width="5" height="4" as="geometry" />
        </mxCell>
        <mxCell id="C8dXw3uoqzPCMPNrL15S-56" value="t&lt;sub style=&quot;font-size: 7px;&quot;&gt;1&lt;/sub&gt;" style="text;html=1;align=center;verticalAlign=middle;whiteSpace=wrap;rounded=0;fontSize=7;fontStyle=1;fontFamily=Times New Roman;" parent="1" vertex="1">
          <mxGeometry x="557" y="261" width="10" height="13" as="geometry" />
        </mxCell>
        <mxCell id="C8dXw3uoqzPCMPNrL15S-65" value="" style="edgeStyle=orthogonalEdgeStyle;rounded=0;orthogonalLoop=1;jettySize=auto;html=1;endArrow=none;endFill=0;" parent="1" source="C8dXw3uoqzPCMPNrL15S-59" target="C8dXw3uoqzPCMPNrL15S-64" edge="1">
          <mxGeometry relative="1" as="geometry" />
        </mxCell>
        <mxCell id="C8dXw3uoqzPCMPNrL15S-59" value="" style="rounded=0;whiteSpace=wrap;html=1;direction=south;fillColor=#b1ddf0;fontFamily=Times New Roman;strokeColor=#10739e;" parent="1" vertex="1">
          <mxGeometry x="507.59000000000003" y="280" width="17.5" height="30" as="geometry" />
        </mxCell>
        <mxCell id="C8dXw3uoqzPCMPNrL15S-82" style="edgeStyle=orthogonalEdgeStyle;rounded=0;orthogonalLoop=1;jettySize=auto;html=1;curved=1;endArrow=open;endFill=0;" parent="1" source="C8dXw3uoqzPCMPNrL15S-64" target="C8dXw3uoqzPCMPNrL15S-49" edge="1">
          <mxGeometry relative="1" as="geometry" />
        </mxCell>
        <mxCell id="C8dXw3uoqzPCMPNrL15S-64" value="" style="rounded=0;whiteSpace=wrap;html=1;direction=south;fillColor=#b1ddf0;fontFamily=Times New Roman;strokeColor=#10739e;" parent="1" vertex="1">
          <mxGeometry x="507.59000000000003" y="327" width="17.5" height="30" as="geometry" />
        </mxCell>
        <mxCell id="C8dXw3uoqzPCMPNrL15S-66" value="" style="shape=curlyBracket;whiteSpace=wrap;html=1;rounded=1;labelPosition=left;verticalLabelPosition=middle;align=right;verticalAlign=middle;rotation=90;fontFamily=Times New Roman;direction=south;" parent="1" vertex="1">
          <mxGeometry x="523" y="290" width="28" height="10" as="geometry" />
        </mxCell>
        <mxCell id="C8dXw3uoqzPCMPNrL15S-69" value="&lt;span style=&quot;font-size: 6px;&quot;&gt;AG Opinion&lt;/span&gt;" style="text;html=1;align=center;verticalAlign=middle;whiteSpace=wrap;rounded=0;fontSize=7;fontFamily=Times New Roman;" parent="1" vertex="1">
          <mxGeometry x="541.67" y="280" width="40.66" height="30" as="geometry" />
        </mxCell>
        <mxCell id="C8dXw3uoqzPCMPNrL15S-70" value="&lt;span style=&quot;font-size: 6px;&quot;&gt;Judgement&lt;/span&gt;" style="text;html=1;align=center;verticalAlign=middle;whiteSpace=wrap;rounded=0;fontSize=7;fontFamily=Times New Roman;" parent="1" vertex="1">
          <mxGeometry x="541.67" y="327" width="40.66" height="30" as="geometry" />
        </mxCell>
        <mxCell id="C8dXw3uoqzPCMPNrL15S-72" value="" style="shape=datastore;whiteSpace=wrap;html=1;fillColor=#b1ddf0;strokeColor=#10739e;" parent="1" vertex="1">
          <mxGeometry x="519.6800000000001" y="407" width="27.32" height="31" as="geometry" />
        </mxCell>
        <mxCell id="C8dXw3uoqzPCMPNrL15S-73" style="rounded=0;orthogonalLoop=1;jettySize=auto;html=1;entryX=0.418;entryY=-0.104;entryDx=0;entryDy=0;entryPerimeter=0;startArrow=none;startFill=0;endArrow=open;endFill=0;" parent="1" source="C8dXw3uoqzPCMPNrL15S-64" target="C8dXw3uoqzPCMPNrL15S-72" edge="1">
          <mxGeometry relative="1" as="geometry" />
        </mxCell>
        <mxCell id="C8dXw3uoqzPCMPNrL15S-74" value="" style="shape=datastore;whiteSpace=wrap;html=1;fillColor=#CCCCCC;strokeColor=#23445d;" parent="1" vertex="1">
          <mxGeometry x="519.6800000000001" y="438.25" width="27.32" height="31" as="geometry" />
        </mxCell>
        <mxCell id="C8dXw3uoqzPCMPNrL15S-76" value="" style="shape=crossbar;whiteSpace=wrap;html=1;rounded=1;direction=south;strokeWidth=1;" parent="1" vertex="1">
          <mxGeometry x="507.59" y="408.25" width="10" height="28.5" as="geometry" />
        </mxCell>
        <mxCell id="C8dXw3uoqzPCMPNrL15S-78" value="" style="shape=crossbar;whiteSpace=wrap;html=1;rounded=1;direction=south;strokeWidth=1;" parent="1" vertex="1">
          <mxGeometry x="551" y="407" width="10" height="60" as="geometry" />
        </mxCell>
        <mxCell id="C8dXw3uoqzPCMPNrL15S-79" value="" style="rounded=0;whiteSpace=wrap;html=1;direction=south;fillColor=#CCCCCC;fontFamily=Times New Roman;" parent="1" vertex="1">
          <mxGeometry x="300.75" y="408.25" width="17.5" height="30" as="geometry" />
        </mxCell>
        <mxCell id="C8dXw3uoqzPCMPNrL15S-81" value="&lt;span style=&quot;font-size: 6px;&quot;&gt;National Judgement&lt;/span&gt;" style="text;html=1;align=center;verticalAlign=middle;whiteSpace=wrap;rounded=0;fontSize=7;fontFamily=Times New Roman;" parent="1" vertex="1">
          <mxGeometry x="251.99999999999994" y="406.75" width="40.66" height="30" as="geometry" />
        </mxCell>
        <mxCell id="C8dXw3uoqzPCMPNrL15S-83" value="&lt;span style=&quot;font-size: 6px;&quot;&gt;Development of EU Caselaw&lt;/span&gt;" style="text;html=1;align=left;verticalAlign=middle;whiteSpace=wrap;rounded=0;fontSize=7;fontFamily=Times New Roman;" parent="1" vertex="1">
          <mxGeometry x="466.92999999999995" y="407.5" width="40.66" height="30" as="geometry" />
        </mxCell>
        <mxCell id="C8dXw3uoqzPCMPNrL15S-85" value="&lt;span style=&quot;font-size: 6px;&quot;&gt;Judicial Enforcement of EU Law&lt;/span&gt;" style="text;html=1;align=left;verticalAlign=middle;whiteSpace=wrap;rounded=0;fontSize=7;fontFamily=Times New Roman;" parent="1" vertex="1">
          <mxGeometry x="557" y="422" width="40.66" height="30" as="geometry" />
        </mxCell>
        <mxCell id="C8dXw3uoqzPCMPNrL15S-86" value="" style="shape=curlyBracket;whiteSpace=wrap;html=1;rounded=1;labelPosition=left;verticalLabelPosition=middle;align=right;verticalAlign=middle;rotation=90;fontFamily=Times New Roman;direction=south;" parent="1" vertex="1">
          <mxGeometry x="525.0899999999999" y="337" width="28" height="10" as="geometry" />
        </mxCell>
        <mxCell id="C8dXw3uoqzPCMPNrL15S-89" value="" style="shape=curlyBracket;whiteSpace=wrap;html=1;rounded=1;labelPosition=left;verticalLabelPosition=middle;align=right;verticalAlign=middle;rotation=90;fontFamily=Times New Roman;direction=north;" parent="1" vertex="1">
          <mxGeometry x="277" y="418.25" width="28" height="10" as="geometry" />
        </mxCell>
        <mxCell id="C8dXw3uoqzPCMPNrL15S-90" value="" style="whiteSpace=wrap;html=1;rounded=0;strokeWidth=0.5;strokeColor=#ae4132;fontFamily=Times New Roman;fillColor=#fad9d5;" parent="1" vertex="1">
          <mxGeometry x="472.26" y="293" width="30" height="4" as="geometry" />
        </mxCell>
        <mxCell id="C8dXw3uoqzPCMPNrL15S-91" value="&lt;span style=&quot;font-weight: normal; font-size: 6px;&quot;&gt;&lt;sub style=&quot;&quot;&gt;Q1&lt;/sub&gt;&lt;/span&gt;" style="text;html=1;align=center;verticalAlign=middle;whiteSpace=wrap;rounded=0;fontSize=7;fontStyle=1;fontFamily=Times New Roman;" parent="1" vertex="1">
          <mxGeometry x="464.93" y="291" width="5" height="4" as="geometry" />
        </mxCell>
        <mxCell id="C8dXw3uoqzPCMPNrL15S-92" value="&lt;span style=&quot;font-weight: normal; font-size: 6px;&quot;&gt;&lt;sub style=&quot;&quot;&gt;Q1&lt;/sub&gt;&lt;/span&gt;" style="text;html=1;align=center;verticalAlign=middle;whiteSpace=wrap;rounded=0;fontSize=7;fontStyle=1;fontFamily=Times New Roman;" parent="1" vertex="1">
          <mxGeometry x="464.93" y="333" width="5" height="4" as="geometry" />
        </mxCell>
        <mxCell id="C8dXw3uoqzPCMPNrL15S-93" value="" style="whiteSpace=wrap;html=1;rounded=0;strokeWidth=0.5;strokeColor=#ae4132;fontFamily=Times New Roman;fillColor=#fad9d5;" parent="1" vertex="1">
          <mxGeometry x="472.26" y="335" width="30" height="4" as="geometry" />
        </mxCell>
        <mxCell id="C8dXw3uoqzPCMPNrL15S-94" value="" style="line;strokeWidth=0.5;direction=west;html=1;fontFamily=Times New Roman;" parent="1" vertex="1">
          <mxGeometry x="502.26" y="333.75" width="4.74" height="6.5" as="geometry" />
        </mxCell>
        <mxCell id="C8dXw3uoqzPCMPNrL15S-95" value="" style="line;strokeWidth=0.5;direction=west;html=1;fontFamily=Times New Roman;" parent="1" vertex="1">
          <mxGeometry x="502.26" y="291.75" width="4.74" height="6.5" as="geometry" />
        </mxCell>
        <mxCell id="C8dXw3uoqzPCMPNrL15S-100" style="edgeStyle=orthogonalEdgeStyle;rounded=0;orthogonalLoop=1;jettySize=auto;html=1;entryX=0.5;entryY=1;entryDx=0;entryDy=0;curved=1;endArrow=open;endFill=0;" parent="1" source="C8dXw3uoqzPCMPNrL15S-96" target="C8dXw3uoqzPCMPNrL15S-44" edge="1">
          <mxGeometry relative="1" as="geometry">
            <Array as="points">
              <mxPoint x="426" y="277" />
              <mxPoint x="407" y="277" />
            </Array>
          </mxGeometry>
        </mxCell>
        <mxCell id="C8dXw3uoqzPCMPNrL15S-101" style="edgeStyle=orthogonalEdgeStyle;rounded=0;orthogonalLoop=1;jettySize=auto;html=1;curved=1;endArrow=open;endFill=0;exitX=1;exitY=0.75;exitDx=0;exitDy=0;" parent="1" source="C8dXw3uoqzPCMPNrL15S-96" edge="1">
          <mxGeometry relative="1" as="geometry">
            <mxPoint x="487" y="298.875" as="targetPoint" />
            <Array as="points">
              <mxPoint x="467" y="303" />
              <mxPoint x="467" y="317" />
              <mxPoint x="487" y="317" />
            </Array>
          </mxGeometry>
        </mxCell>
        <mxCell id="C8dXw3uoqzPCMPNrL15S-102" style="edgeStyle=orthogonalEdgeStyle;rounded=0;orthogonalLoop=1;jettySize=auto;html=1;entryX=0.5;entryY=0;entryDx=0;entryDy=0;endArrow=open;endFill=0;curved=1;" parent="1" edge="1">
          <mxGeometry relative="1" as="geometry">
            <mxPoint x="425.4424390243903" y="306.75" as="sourcePoint" />
            <mxPoint x="486.3" y="335" as="targetPoint" />
            <Array as="points">
              <mxPoint x="425" y="317" />
              <mxPoint x="470" y="317" />
              <mxPoint x="470" y="320" />
              <mxPoint x="486" y="320" />
            </Array>
          </mxGeometry>
        </mxCell>
        <mxCell id="C8dXw3uoqzPCMPNrL15S-96" value="&lt;font face=&quot;Times New Roman&quot; style=&quot;font-size: 7px;&quot;&gt;Legal Questions&lt;/font&gt;" style="text;html=1;align=center;verticalAlign=middle;whiteSpace=wrap;rounded=0;" parent="1" vertex="1">
          <mxGeometry x="402" y="291" width="48.75" height="15.75" as="geometry" />
        </mxCell>
        <mxCell id="C8dXw3uoqzPCMPNrL15S-97" value="" style="shape=datastore;whiteSpace=wrap;html=1;fillColor=#fad9d5;strokeColor=#ae4132;" parent="1" vertex="1">
          <mxGeometry x="372.84000000000003" y="302.75" width="27.32" height="31" as="geometry" />
        </mxCell>
        <mxCell id="NhRMagXMhKoOoMeSTEN1-1" value="" style="group" parent="1" vertex="1" connectable="0">
          <mxGeometry x="476.34" y="185" width="80" height="80" as="geometry" />
        </mxCell>
        <mxCell id="C8dXw3uoqzPCMPNrL15S-21" value="" style="whiteSpace=wrap;html=1;aspect=fixed;fillColor=#bee0ee;strokeColor=#10739e;fontFamily=Times New Roman;" parent="NhRMagXMhKoOoMeSTEN1-1" vertex="1">
          <mxGeometry width="80" height="80" as="geometry" />
        </mxCell>
        <mxCell id="C8dXw3uoqzPCMPNrL15S-22" value="" style="endArrow=none;html=1;rounded=0;entryX=1.001;entryY=0.164;entryDx=0;entryDy=0;entryPerimeter=0;exitX=0;exitY=0.158;exitDx=0;exitDy=0;exitPerimeter=0;fillColor=#b1ddf0;strokeColor=#10739e;fontFamily=Times New Roman;" parent="NhRMagXMhKoOoMeSTEN1-1" source="C8dXw3uoqzPCMPNrL15S-21" target="C8dXw3uoqzPCMPNrL15S-21" edge="1">
          <mxGeometry width="50" height="50" relative="1" as="geometry">
            <mxPoint x="-99.33999999999997" y="20" as="sourcePoint" />
            <mxPoint x="0.660000000000025" y="-70" as="targetPoint" />
          </mxGeometry>
        </mxCell>
      </root>
    </mxGraphModel>
  </diagram>
  <diagram id="Snb-ulcUwgp9MZDRRkVL" name="Page-3">
    <mxGraphModel dx="350" dy="185" grid="1" gridSize="10" guides="1" tooltips="1" connect="1" arrows="1" fold="1" page="1" pageScale="1" pageWidth="850" pageHeight="1100" math="0" shadow="0">
      <root>
        <mxCell id="0" />
        <mxCell id="1" parent="0" />
        <mxCell id="_i3OEtGMhb14WoOirImN-2" value="" style="shape=curlyBracket;whiteSpace=wrap;html=1;rounded=1;labelPosition=left;verticalLabelPosition=middle;align=right;verticalAlign=middle;rotation=0;fontFamily=Times New Roman;" parent="1" vertex="1">
          <mxGeometry x="91.75" y="304" width="10" height="50" as="geometry" />
        </mxCell>
        <mxCell id="L22xxLEYPAmq4ZMWk_22-3" value="" style="rounded=0;orthogonalLoop=1;jettySize=auto;html=1;endArrow=none;endFill=0;fontFamily=Times New Roman;" parent="1" source="_i3OEtGMhb14WoOirImN-5" target="6A0FPPABcNUQAGr4b63n-1" edge="1">
          <mxGeometry relative="1" as="geometry" />
        </mxCell>
        <mxCell id="L22xxLEYPAmq4ZMWk_22-23" value="\\" style="edgeLabel;html=1;align=center;verticalAlign=middle;resizable=0;points=[];fontFamily=Times New Roman;" parent="L22xxLEYPAmq4ZMWk_22-3" vertex="1" connectable="0">
          <mxGeometry x="-0.0129" relative="1" as="geometry">
            <mxPoint as="offset" />
          </mxGeometry>
        </mxCell>
        <mxCell id="QAgmBR44Fgi_TN2DcMOS-3" value="" style="edgeStyle=orthogonalEdgeStyle;rounded=0;orthogonalLoop=1;jettySize=auto;html=1;endArrow=none;endFill=0;" edge="1" parent="1" source="_i3OEtGMhb14WoOirImN-5" target="QAgmBR44Fgi_TN2DcMOS-2">
          <mxGeometry relative="1" as="geometry" />
        </mxCell>
        <mxCell id="_i3OEtGMhb14WoOirImN-5" value="" style="rhombus;whiteSpace=wrap;html=1;fontFamily=Times New Roman;fillColor=#f5f5f5;fontColor=#333333;strokeColor=#666666;" parent="1" vertex="1">
          <mxGeometry x="119.25" y="376.5" width="25" height="25" as="geometry" />
        </mxCell>
        <mxCell id="L22xxLEYPAmq4ZMWk_22-2" style="edgeStyle=orthogonalEdgeStyle;rounded=0;orthogonalLoop=1;jettySize=auto;html=1;entryX=0.5;entryY=0;entryDx=0;entryDy=0;endArrow=none;endFill=0;fontFamily=Times New Roman;" parent="1" source="_i3OEtGMhb14WoOirImN-7" target="_i3OEtGMhb14WoOirImN-5" edge="1">
          <mxGeometry relative="1" as="geometry" />
        </mxCell>
        <mxCell id="_i3OEtGMhb14WoOirImN-7" value="" style="whiteSpace=wrap;html=1;aspect=fixed;fillColor=#f5f5f5;fontColor=#333333;strokeColor=#666666;fontFamily=Times New Roman;" parent="1" vertex="1">
          <mxGeometry x="111.75" y="311.5" width="40" height="40" as="geometry" />
        </mxCell>
        <mxCell id="_d7uvYJOq5cDSxNdgOTx-1" value="An Informational Approach to&amp;nbsp;&lt;div&gt;Judicial Decision Making&lt;/div&gt;" style="text;strokeColor=none;fillColor=none;html=1;fontSize=24;fontStyle=1;verticalAlign=middle;align=center;fontFamily=Times New Roman;" parent="1" vertex="1">
          <mxGeometry x="622.5" y="120" width="335" height="100" as="geometry" />
        </mxCell>
        <mxCell id="6A0FPPABcNUQAGr4b63n-3" value="" style="group;fontFamily=Times New Roman;" parent="1" vertex="1" connectable="0">
          <mxGeometry x="201.75" y="364" width="50" height="50" as="geometry" />
        </mxCell>
        <mxCell id="6A0FPPABcNUQAGr4b63n-1" value="" style="whiteSpace=wrap;html=1;aspect=fixed;fillColor=#dae8fc;strokeColor=#6c8ebf;fontFamily=Times New Roman;" parent="6A0FPPABcNUQAGr4b63n-3" vertex="1">
          <mxGeometry width="48" height="48" as="geometry" />
        </mxCell>
        <mxCell id="6A0FPPABcNUQAGr4b63n-2" value="" style="endArrow=none;html=1;rounded=0;entryX=1.001;entryY=0.164;entryDx=0;entryDy=0;entryPerimeter=0;exitX=0;exitY=0.158;exitDx=0;exitDy=0;exitPerimeter=0;fillColor=#b1ddf0;strokeColor=#10739e;fontFamily=Times New Roman;" parent="6A0FPPABcNUQAGr4b63n-3" source="6A0FPPABcNUQAGr4b63n-1" target="6A0FPPABcNUQAGr4b63n-1" edge="1">
          <mxGeometry width="50" height="50" relative="1" as="geometry">
            <mxPoint x="-110.37777777777774" y="22.22222222222222" as="sourcePoint" />
            <mxPoint x="0.7333333333333611" y="-77.77777777777777" as="targetPoint" />
          </mxGeometry>
        </mxCell>
        <mxCell id="L22xxLEYPAmq4ZMWk_22-1" value="&lt;b&gt;&lt;font style=&quot;font-size: 10px;&quot;&gt;MS Court&lt;/font&gt;&lt;/b&gt;" style="text;html=1;align=center;verticalAlign=middle;whiteSpace=wrap;rounded=0;fontFamily=Times New Roman;" parent="1" vertex="1">
          <mxGeometry x="41.75" y="316" width="50" height="20" as="geometry" />
        </mxCell>
        <mxCell id="L22xxLEYPAmq4ZMWk_22-18" value="" style="shape=curlyBracket;whiteSpace=wrap;html=1;rounded=1;labelPosition=left;verticalLabelPosition=middle;align=right;verticalAlign=middle;rotation=0;fontFamily=Times New Roman;" parent="1" vertex="1">
          <mxGeometry x="101.75" y="379" width="10" height="22.5" as="geometry" />
        </mxCell>
        <mxCell id="L22xxLEYPAmq4ZMWk_22-19" value="&lt;b&gt;&lt;font style=&quot;font-size: 10px;&quot;&gt;Referral&lt;/font&gt;&lt;/b&gt;" style="text;html=1;align=center;verticalAlign=middle;whiteSpace=wrap;rounded=0;fontFamily=Times New Roman;" parent="1" vertex="1">
          <mxGeometry x="61.75" y="375.25" width="40" height="27.5" as="geometry" />
        </mxCell>
        <mxCell id="L22xxLEYPAmq4ZMWk_22-20" value="" style="shape=curlyBracket;whiteSpace=wrap;html=1;rounded=1;labelPosition=left;verticalLabelPosition=middle;align=right;verticalAlign=middle;rotation=0;fontFamily=Times New Roman;direction=west;" parent="1" vertex="1">
          <mxGeometry x="258.75" y="357.5" width="10" height="62.5" as="geometry" />
        </mxCell>
        <mxCell id="L22xxLEYPAmq4ZMWk_22-21" value="&lt;b&gt;&lt;font style=&quot;font-size: 10px;&quot;&gt;ECJ&lt;/font&gt;&lt;/b&gt;" style="text;html=1;align=center;verticalAlign=middle;whiteSpace=wrap;rounded=0;fontFamily=Times New Roman;" parent="1" vertex="1">
          <mxGeometry x="268.75" y="378.75" width="30" height="20" as="geometry" />
        </mxCell>
        <mxCell id="L22xxLEYPAmq4ZMWk_22-26" value="&lt;font style=&quot;font-size: 6px;&quot;&gt;YES&lt;/font&gt;" style="text;html=1;align=center;verticalAlign=middle;whiteSpace=wrap;rounded=0;fontFamily=Times New Roman;fontStyle=1" parent="1" vertex="1">
          <mxGeometry x="144.25" y="375.25" width="20" height="10" as="geometry" />
        </mxCell>
        <mxCell id="L22xxLEYPAmq4ZMWk_22-27" value="&lt;font style=&quot;font-size: 6px;&quot;&gt;NO&lt;/font&gt;" style="text;html=1;align=center;verticalAlign=middle;whiteSpace=wrap;rounded=0;fontFamily=Times New Roman;fontStyle=1" parent="1" vertex="1">
          <mxGeometry x="129.75" y="399.25" width="20" height="10.5" as="geometry" />
        </mxCell>
        <mxCell id="L22xxLEYPAmq4ZMWk_22-28" value="&lt;h5&gt;&lt;font&gt;Process #0&lt;/font&gt;&lt;/h5&gt;" style="text;strokeColor=none;fillColor=none;html=1;fontSize=24;fontStyle=1;verticalAlign=middle;align=center;fontFamily=Times New Roman;" parent="1" vertex="1">
          <mxGeometry x="119.25" y="250" width="100" height="40" as="geometry" />
        </mxCell>
        <mxCell id="L22xxLEYPAmq4ZMWk_22-49" value="&lt;h5&gt;&lt;font&gt;Process #1&lt;/font&gt;&lt;/h5&gt;" style="text;strokeColor=none;fillColor=none;html=1;fontSize=24;fontStyle=1;verticalAlign=middle;align=center;fontFamily=Times New Roman;" parent="1" vertex="1">
          <mxGeometry x="438.75" y="250" width="100" height="40" as="geometry" />
        </mxCell>
        <mxCell id="L22xxLEYPAmq4ZMWk_22-74" value="" style="shape=curlyBracket;whiteSpace=wrap;html=1;rounded=1;labelPosition=left;verticalLabelPosition=middle;align=right;verticalAlign=middle;rotation=0;fontFamily=Times New Roman;" parent="1" vertex="1">
          <mxGeometry x="1133" y="320" width="10" height="50" as="geometry" />
        </mxCell>
        <mxCell id="L22xxLEYPAmq4ZMWk_22-75" value="" style="rounded=0;orthogonalLoop=1;jettySize=auto;html=1;endArrow=none;endFill=0;fontFamily=Times New Roman;" parent="1" source="L22xxLEYPAmq4ZMWk_22-78" target="L22xxLEYPAmq4ZMWk_22-82" edge="1">
          <mxGeometry relative="1" as="geometry" />
        </mxCell>
        <mxCell id="L22xxLEYPAmq4ZMWk_22-77" style="edgeStyle=orthogonalEdgeStyle;rounded=0;orthogonalLoop=1;jettySize=auto;html=1;endArrow=none;endFill=0;fontFamily=Times New Roman;" parent="1" source="L22xxLEYPAmq4ZMWk_22-78" edge="1">
          <mxGeometry relative="1" as="geometry">
            <mxPoint x="1174" y="447.5" as="targetPoint" />
          </mxGeometry>
        </mxCell>
        <mxCell id="L22xxLEYPAmq4ZMWk_22-98" value="//" style="edgeLabel;html=1;align=center;verticalAlign=middle;resizable=0;points=[];fontFamily=Times New Roman;" parent="L22xxLEYPAmq4ZMWk_22-77" vertex="1" connectable="0">
          <mxGeometry x="-0.0132" y="-1" relative="1" as="geometry">
            <mxPoint as="offset" />
          </mxGeometry>
        </mxCell>
        <mxCell id="L22xxLEYPAmq4ZMWk_22-78" value="" style="rhombus;whiteSpace=wrap;html=1;fontFamily=Times New Roman;fillColor=#f5f5f5;fontColor=#333333;strokeColor=#666666;" parent="1" vertex="1">
          <mxGeometry x="1161.5" y="392.5" width="25" height="25" as="geometry" />
        </mxCell>
        <mxCell id="L22xxLEYPAmq4ZMWk_22-79" style="edgeStyle=orthogonalEdgeStyle;rounded=0;orthogonalLoop=1;jettySize=auto;html=1;entryX=0.5;entryY=0;entryDx=0;entryDy=0;endArrow=none;endFill=0;fontFamily=Times New Roman;" parent="1" source="L22xxLEYPAmq4ZMWk_22-80" target="L22xxLEYPAmq4ZMWk_22-78" edge="1">
          <mxGeometry relative="1" as="geometry" />
        </mxCell>
        <mxCell id="L22xxLEYPAmq4ZMWk_22-80" value="" style="whiteSpace=wrap;html=1;aspect=fixed;fillColor=#f5f5f5;fontColor=#333333;strokeColor=#666666;fontFamily=Times New Roman;" parent="1" vertex="1">
          <mxGeometry x="1154" y="327.5" width="40" height="40" as="geometry" />
        </mxCell>
        <mxCell id="L22xxLEYPAmq4ZMWk_22-81" value="" style="group;fontFamily=Times New Roman;" parent="1" vertex="1" connectable="0">
          <mxGeometry x="1234" y="379.75" width="50" height="50" as="geometry" />
        </mxCell>
        <mxCell id="L22xxLEYPAmq4ZMWk_22-82" value="" style="whiteSpace=wrap;html=1;aspect=fixed;fillColor=#dae8fc;strokeColor=#6c8ebf;fontFamily=Times New Roman;" parent="L22xxLEYPAmq4ZMWk_22-81" vertex="1">
          <mxGeometry width="48" height="48" as="geometry" />
        </mxCell>
        <mxCell id="L22xxLEYPAmq4ZMWk_22-83" value="" style="endArrow=none;html=1;rounded=0;entryX=1.001;entryY=0.164;entryDx=0;entryDy=0;entryPerimeter=0;exitX=0;exitY=0.158;exitDx=0;exitDy=0;exitPerimeter=0;fillColor=#b1ddf0;strokeColor=#10739e;fontFamily=Times New Roman;" parent="L22xxLEYPAmq4ZMWk_22-81" source="L22xxLEYPAmq4ZMWk_22-82" target="L22xxLEYPAmq4ZMWk_22-82" edge="1">
          <mxGeometry width="50" height="50" relative="1" as="geometry">
            <mxPoint x="-110.37777777777774" y="22.22222222222222" as="sourcePoint" />
            <mxPoint x="0.7333333333333611" y="-77.77777777777777" as="targetPoint" />
          </mxGeometry>
        </mxCell>
        <mxCell id="L22xxLEYPAmq4ZMWk_22-84" value="&lt;b&gt;&lt;font style=&quot;font-size: 10px;&quot;&gt;MS Court&lt;/font&gt;&lt;/b&gt;" style="text;html=1;align=center;verticalAlign=middle;whiteSpace=wrap;rounded=0;fontFamily=Times New Roman;" parent="1" vertex="1">
          <mxGeometry x="1084" y="332" width="50" height="20" as="geometry" />
        </mxCell>
        <mxCell id="L22xxLEYPAmq4ZMWk_22-85" value="" style="group;fontFamily=Times New Roman;" parent="1" vertex="1" connectable="0">
          <mxGeometry x="1154" y="447.5" width="40" height="16" as="geometry" />
        </mxCell>
        <mxCell id="L22xxLEYPAmq4ZMWk_22-86" value="END" style="shape=process;whiteSpace=wrap;html=1;backgroundOutline=1;strokeWidth=0.5;container=0;fontSize=5;fontFamily=Times New Roman;align=center;" parent="L22xxLEYPAmq4ZMWk_22-85" vertex="1">
          <mxGeometry y="0.7999999999999997" width="40" height="15.200000000000001" as="geometry" />
        </mxCell>
        <mxCell id="L22xxLEYPAmq4ZMWk_22-87" value="" style="endArrow=none;html=1;rounded=0;exitX=0;exitY=0.75;exitDx=0;exitDy=0;entryX=1;entryY=0.75;entryDx=0;entryDy=0;strokeWidth=0.5;fontSize=5;fontFamily=Times New Roman;" parent="L22xxLEYPAmq4ZMWk_22-85" source="L22xxLEYPAmq4ZMWk_22-86" target="L22xxLEYPAmq4ZMWk_22-86" edge="1">
          <mxGeometry width="50" height="50" relative="1" as="geometry">
            <mxPoint x="10" y="3.366666666666651" as="sourcePoint" />
            <mxPoint x="16.25" y="-1.2999999999999998" as="targetPoint" />
          </mxGeometry>
        </mxCell>
        <mxCell id="L22xxLEYPAmq4ZMWk_22-88" value="" style="shape=curlyBracket;whiteSpace=wrap;html=1;rounded=1;labelPosition=left;verticalLabelPosition=middle;align=right;verticalAlign=middle;rotation=0;fontFamily=Times New Roman;" parent="1" vertex="1">
          <mxGeometry x="1144" y="395" width="10" height="22.5" as="geometry" />
        </mxCell>
        <mxCell id="L22xxLEYPAmq4ZMWk_22-89" value="&lt;b&gt;&lt;font style=&quot;font-size: 10px;&quot;&gt;Referral&lt;/font&gt;&lt;/b&gt;" style="text;html=1;align=center;verticalAlign=middle;whiteSpace=wrap;rounded=0;fontFamily=Times New Roman;" parent="1" vertex="1">
          <mxGeometry x="1104" y="391.25" width="40" height="27.5" as="geometry" />
        </mxCell>
        <mxCell id="L22xxLEYPAmq4ZMWk_22-90" value="" style="shape=curlyBracket;whiteSpace=wrap;html=1;rounded=1;labelPosition=left;verticalLabelPosition=middle;align=right;verticalAlign=middle;rotation=0;fontFamily=Times New Roman;direction=west;" parent="1" vertex="1">
          <mxGeometry x="1301" y="373.5" width="10" height="62.5" as="geometry" />
        </mxCell>
        <mxCell id="L22xxLEYPAmq4ZMWk_22-91" value="&lt;b&gt;&lt;font style=&quot;font-size: 10px;&quot;&gt;ECJ&lt;/font&gt;&lt;/b&gt;" style="text;html=1;align=center;verticalAlign=middle;whiteSpace=wrap;rounded=0;fontFamily=Times New Roman;" parent="1" vertex="1">
          <mxGeometry x="1311" y="394.75" width="30" height="20" as="geometry" />
        </mxCell>
        <mxCell id="L22xxLEYPAmq4ZMWk_22-92" value="&lt;font style=&quot;font-size: 6px;&quot;&gt;YES&lt;/font&gt;" style="text;html=1;align=center;verticalAlign=middle;whiteSpace=wrap;rounded=0;fontFamily=Times New Roman;fontStyle=1" parent="1" vertex="1">
          <mxGeometry x="1186.5" y="390" width="20" height="11.25" as="geometry" />
        </mxCell>
        <mxCell id="L22xxLEYPAmq4ZMWk_22-93" value="&lt;font style=&quot;font-size: 6px;&quot;&gt;NO&lt;/font&gt;" style="text;html=1;align=center;verticalAlign=middle;whiteSpace=wrap;rounded=0;fontFamily=Times New Roman;fontStyle=1" parent="1" vertex="1">
          <mxGeometry x="1171" y="416.25" width="20" height="8.75" as="geometry" />
        </mxCell>
        <mxCell id="L22xxLEYPAmq4ZMWk_22-94" value="&lt;h5&gt;&lt;font&gt;Process #4&lt;/font&gt;&lt;/h5&gt;" style="text;strokeColor=none;fillColor=none;html=1;fontSize=24;fontStyle=1;verticalAlign=middle;align=center;fontFamily=Times New Roman;" parent="1" vertex="1">
          <mxGeometry x="1178" y="260" width="100" height="40" as="geometry" />
        </mxCell>
        <mxCell id="L22xxLEYPAmq4ZMWk_22-109" style="edgeStyle=orthogonalEdgeStyle;rounded=0;orthogonalLoop=1;jettySize=auto;html=1;entryX=0.5;entryY=0;entryDx=0;entryDy=0;endArrow=none;endFill=0;fontFamily=Times New Roman;" parent="1" source="L22xxLEYPAmq4ZMWk_22-95" target="L22xxLEYPAmq4ZMWk_22-96" edge="1">
          <mxGeometry relative="1" as="geometry" />
        </mxCell>
        <mxCell id="L22xxLEYPAmq4ZMWk_22-95" value="" style="rhombus;whiteSpace=wrap;html=1;fontFamily=Times New Roman;fillColor=#dae8fc;strokeColor=#6c8ebf;" parent="1" vertex="1">
          <mxGeometry x="1245.5" y="450" width="25" height="25" as="geometry" />
        </mxCell>
        <mxCell id="L22xxLEYPAmq4ZMWk_22-96" value="" style="rhombus;whiteSpace=wrap;html=1;fontFamily=Times New Roman;fillColor=#dae8fc;strokeColor=#6c8ebf;" parent="1" vertex="1">
          <mxGeometry x="1245.5" y="494.5" width="25" height="25" as="geometry" />
        </mxCell>
        <mxCell id="L22xxLEYPAmq4ZMWk_22-100" value="" style="shape=curlyBracket;whiteSpace=wrap;html=1;rounded=1;labelPosition=left;verticalLabelPosition=middle;align=right;verticalAlign=middle;rotation=0;fontFamily=Times New Roman;direction=west;" parent="1" vertex="1">
          <mxGeometry x="1354" y="451.25" width="10" height="22.5" as="geometry" />
        </mxCell>
        <mxCell id="L22xxLEYPAmq4ZMWk_22-101" value="&lt;font style=&quot;font-size: 10px;&quot;&gt;Keep &quot;as is&quot;&lt;/font&gt;" style="text;html=1;align=left;verticalAlign=middle;whiteSpace=wrap;rounded=0;fontFamily=Times New Roman;fontStyle=1" parent="1" vertex="1">
          <mxGeometry x="1364" y="447.5" width="62.5" height="27.5" as="geometry" />
        </mxCell>
        <mxCell id="L22xxLEYPAmq4ZMWk_22-102" value="" style="group;fontFamily=Times New Roman;" parent="1" vertex="1" connectable="0">
          <mxGeometry x="1304" y="454.5" width="40" height="16" as="geometry" />
        </mxCell>
        <mxCell id="L22xxLEYPAmq4ZMWk_22-103" value="END" style="shape=process;whiteSpace=wrap;html=1;backgroundOutline=1;strokeWidth=0.5;container=0;fontSize=5;fontFamily=Times New Roman;align=center;" parent="L22xxLEYPAmq4ZMWk_22-102" vertex="1">
          <mxGeometry y="0.7999999999999997" width="40" height="15.200000000000001" as="geometry" />
        </mxCell>
        <mxCell id="L22xxLEYPAmq4ZMWk_22-104" value="" style="endArrow=none;html=1;rounded=0;exitX=0;exitY=0.75;exitDx=0;exitDy=0;entryX=1;entryY=0.75;entryDx=0;entryDy=0;strokeWidth=0.5;fontSize=5;fontFamily=Times New Roman;" parent="L22xxLEYPAmq4ZMWk_22-102" source="L22xxLEYPAmq4ZMWk_22-103" target="L22xxLEYPAmq4ZMWk_22-103" edge="1">
          <mxGeometry width="50" height="50" relative="1" as="geometry">
            <mxPoint x="10" y="3.366666666666651" as="sourcePoint" />
            <mxPoint x="16.25" y="-1.2999999999999998" as="targetPoint" />
          </mxGeometry>
        </mxCell>
        <mxCell id="L22xxLEYPAmq4ZMWk_22-113" style="edgeStyle=orthogonalEdgeStyle;rounded=0;orthogonalLoop=1;jettySize=auto;html=1;endArrow=none;endFill=0;fontFamily=Times New Roman;" parent="1" source="L22xxLEYPAmq4ZMWk_22-82" edge="1">
          <mxGeometry relative="1" as="geometry">
            <mxPoint x="1258" y="450" as="targetPoint" />
          </mxGeometry>
        </mxCell>
        <mxCell id="L22xxLEYPAmq4ZMWk_22-115" value="" style="shape=curlyBracket;whiteSpace=wrap;html=1;rounded=1;labelPosition=left;verticalLabelPosition=middle;align=right;verticalAlign=middle;rotation=0;fontFamily=Times New Roman;direction=west;" parent="1" vertex="1">
          <mxGeometry x="1354" y="495.75" width="10" height="22.5" as="geometry" />
        </mxCell>
        <mxCell id="L22xxLEYPAmq4ZMWk_22-116" value="" style="group;fontFamily=Times New Roman;" parent="1" vertex="1" connectable="0">
          <mxGeometry x="1304" y="499" width="40" height="16" as="geometry" />
        </mxCell>
        <mxCell id="L22xxLEYPAmq4ZMWk_22-117" value="END" style="shape=process;whiteSpace=wrap;html=1;backgroundOutline=1;strokeWidth=0.5;container=0;fontSize=5;fontFamily=Times New Roman;align=center;" parent="L22xxLEYPAmq4ZMWk_22-116" vertex="1">
          <mxGeometry y="0.7999999999999997" width="40" height="15.200000000000001" as="geometry" />
        </mxCell>
        <mxCell id="L22xxLEYPAmq4ZMWk_22-118" value="" style="endArrow=none;html=1;rounded=0;exitX=0;exitY=0.75;exitDx=0;exitDy=0;entryX=1;entryY=0.75;entryDx=0;entryDy=0;strokeWidth=0.5;fontSize=5;fontFamily=Times New Roman;" parent="L22xxLEYPAmq4ZMWk_22-116" source="L22xxLEYPAmq4ZMWk_22-117" target="L22xxLEYPAmq4ZMWk_22-117" edge="1">
          <mxGeometry width="50" height="50" relative="1" as="geometry">
            <mxPoint x="10" y="3.366666666666651" as="sourcePoint" />
            <mxPoint x="16.25" y="-1.2999999999999998" as="targetPoint" />
          </mxGeometry>
        </mxCell>
        <mxCell id="L22xxLEYPAmq4ZMWk_22-120" value="&lt;font style=&quot;font-size: 10px;&quot;&gt;Answers Original &lt;br&gt;claim formulation OJ&lt;/font&gt;" style="text;html=1;align=left;verticalAlign=middle;whiteSpace=wrap;rounded=0;fontFamily=Times New Roman;fontStyle=1" parent="1" vertex="1">
          <mxGeometry x="1364" y="490.75" width="102.5" height="27.5" as="geometry" />
        </mxCell>
        <mxCell id="L22xxLEYPAmq4ZMWk_22-144" style="edgeStyle=orthogonalEdgeStyle;rounded=0;orthogonalLoop=1;jettySize=auto;html=1;entryX=0.5;entryY=0;entryDx=0;entryDy=0;endArrow=none;endFill=0;fontFamily=Times New Roman;" parent="1" source="L22xxLEYPAmq4ZMWk_22-122" target="L22xxLEYPAmq4ZMWk_22-142" edge="1">
          <mxGeometry relative="1" as="geometry" />
        </mxCell>
        <mxCell id="L22xxLEYPAmq4ZMWk_22-122" value="" style="rhombus;whiteSpace=wrap;html=1;fontFamily=Times New Roman;fillColor=#dae8fc;strokeColor=#6c8ebf;" parent="1" vertex="1">
          <mxGeometry x="1245.5" y="540" width="25" height="25" as="geometry" />
        </mxCell>
        <mxCell id="L22xxLEYPAmq4ZMWk_22-123" value="" style="group;fontFamily=Times New Roman;" parent="1" vertex="1" connectable="0">
          <mxGeometry x="1304" y="544.5" width="40" height="16" as="geometry" />
        </mxCell>
        <mxCell id="L22xxLEYPAmq4ZMWk_22-124" value="END" style="shape=process;whiteSpace=wrap;html=1;backgroundOutline=1;strokeWidth=0.5;container=0;fontSize=5;fontFamily=Times New Roman;align=center;" parent="L22xxLEYPAmq4ZMWk_22-123" vertex="1">
          <mxGeometry y="0.7999999999999997" width="40" height="15.200000000000001" as="geometry" />
        </mxCell>
        <mxCell id="L22xxLEYPAmq4ZMWk_22-125" value="" style="endArrow=none;html=1;rounded=0;exitX=0;exitY=0.75;exitDx=0;exitDy=0;entryX=1;entryY=0.75;entryDx=0;entryDy=0;strokeWidth=0.5;fontSize=5;fontFamily=Times New Roman;" parent="L22xxLEYPAmq4ZMWk_22-123" source="L22xxLEYPAmq4ZMWk_22-124" target="L22xxLEYPAmq4ZMWk_22-124" edge="1">
          <mxGeometry width="50" height="50" relative="1" as="geometry">
            <mxPoint x="10" y="3.366666666666651" as="sourcePoint" />
            <mxPoint x="16.25" y="-1.2999999999999998" as="targetPoint" />
          </mxGeometry>
        </mxCell>
        <mxCell id="L22xxLEYPAmq4ZMWk_22-128" style="edgeStyle=orthogonalEdgeStyle;rounded=0;orthogonalLoop=1;jettySize=auto;html=1;entryX=-0.007;entryY=0.459;entryDx=0;entryDy=0;entryPerimeter=0;targetPerimeterSpacing=-1;endArrow=none;endFill=0;exitX=1;exitY=0.5;exitDx=0;exitDy=0;fontFamily=Times New Roman;" parent="L22xxLEYPAmq4ZMWk_22-123" source="L22xxLEYPAmq4ZMWk_22-122" edge="1">
          <mxGeometry relative="1" as="geometry">
            <mxPoint x="-20.72160771704182" y="8.111607717041807" as="sourcePoint" />
            <mxPoint x="1.1368683772161603e-13" y="7.886799999999994" as="targetPoint" />
          </mxGeometry>
        </mxCell>
        <mxCell id="L22xxLEYPAmq4ZMWk_22-139" value="\\" style="edgeLabel;html=1;align=center;verticalAlign=middle;resizable=0;points=[];fontFamily=Times New Roman;" parent="L22xxLEYPAmq4ZMWk_22-128" vertex="1" connectable="0">
          <mxGeometry x="-0.1866" y="-1" relative="1" as="geometry">
            <mxPoint as="offset" />
          </mxGeometry>
        </mxCell>
        <mxCell id="L22xxLEYPAmq4ZMWk_22-126" style="edgeStyle=orthogonalEdgeStyle;rounded=0;orthogonalLoop=1;jettySize=auto;html=1;entryX=0.463;entryY=-0.054;entryDx=0;entryDy=0;entryPerimeter=0;endArrow=none;endFill=0;fontFamily=Times New Roman;" parent="1" source="L22xxLEYPAmq4ZMWk_22-96" target="L22xxLEYPAmq4ZMWk_22-122" edge="1">
          <mxGeometry relative="1" as="geometry" />
        </mxCell>
        <mxCell id="L22xxLEYPAmq4ZMWk_22-131" value="" style="shape=curlyBracket;whiteSpace=wrap;html=1;rounded=1;labelPosition=left;verticalLabelPosition=middle;align=right;verticalAlign=middle;rotation=0;fontFamily=Times New Roman;direction=west;" parent="1" vertex="1">
          <mxGeometry x="1353.5" y="542.5" width="10" height="22.5" as="geometry" />
        </mxCell>
        <mxCell id="L22xxLEYPAmq4ZMWk_22-132" value="&lt;span style=&quot;font-size: 10px;&quot;&gt;Previously raised?&lt;/span&gt;" style="text;html=1;align=left;verticalAlign=middle;whiteSpace=wrap;rounded=0;fontFamily=Times New Roman;fontStyle=1" parent="1" vertex="1">
          <mxGeometry x="1363.5" y="537.5" width="102.5" height="27.5" as="geometry" />
        </mxCell>
        <mxCell id="L22xxLEYPAmq4ZMWk_22-134" style="edgeStyle=orthogonalEdgeStyle;rounded=0;orthogonalLoop=1;jettySize=auto;html=1;entryX=1;entryY=0.5;entryDx=0;entryDy=0;endArrow=none;endFill=0;exitX=-0.001;exitY=0.438;exitDx=0;exitDy=0;exitPerimeter=0;fontFamily=Times New Roman;" parent="1" source="L22xxLEYPAmq4ZMWk_22-103" edge="1">
          <mxGeometry relative="1" as="geometry">
            <mxPoint x="1291.5" y="462.6992248062015" as="sourcePoint" />
            <mxPoint x="1270.5" y="462.29999999999995" as="targetPoint" />
          </mxGeometry>
        </mxCell>
        <mxCell id="L22xxLEYPAmq4ZMWk_22-155" value="\\" style="edgeLabel;html=1;align=center;verticalAlign=middle;resizable=0;points=[];fontFamily=Times New Roman;" parent="L22xxLEYPAmq4ZMWk_22-134" vertex="1" connectable="0">
          <mxGeometry x="0.1744" relative="1" as="geometry">
            <mxPoint as="offset" />
          </mxGeometry>
        </mxCell>
        <mxCell id="L22xxLEYPAmq4ZMWk_22-141" value="" style="group;fontFamily=Times New Roman;" parent="1" vertex="1" connectable="0">
          <mxGeometry x="1238" y="590" width="40" height="16" as="geometry" />
        </mxCell>
        <mxCell id="L22xxLEYPAmq4ZMWk_22-142" value="END" style="shape=process;whiteSpace=wrap;html=1;backgroundOutline=1;strokeWidth=0.5;container=0;fontSize=5;fontFamily=Times New Roman;align=center;" parent="L22xxLEYPAmq4ZMWk_22-141" vertex="1">
          <mxGeometry y="0.7999999999999997" width="40" height="15.200000000000001" as="geometry" />
        </mxCell>
        <mxCell id="L22xxLEYPAmq4ZMWk_22-143" value="" style="endArrow=none;html=1;rounded=0;exitX=0;exitY=0.75;exitDx=0;exitDy=0;entryX=1;entryY=0.75;entryDx=0;entryDy=0;strokeWidth=0.5;fontSize=5;fontFamily=Times New Roman;" parent="L22xxLEYPAmq4ZMWk_22-141" source="L22xxLEYPAmq4ZMWk_22-142" target="L22xxLEYPAmq4ZMWk_22-142" edge="1">
          <mxGeometry width="50" height="50" relative="1" as="geometry">
            <mxPoint x="10" y="3.366666666666651" as="sourcePoint" />
            <mxPoint x="16.25" y="-1.2999999999999998" as="targetPoint" />
          </mxGeometry>
        </mxCell>
        <mxCell id="L22xxLEYPAmq4ZMWk_22-135" style="edgeStyle=orthogonalEdgeStyle;rounded=0;orthogonalLoop=1;jettySize=auto;html=1;endArrow=none;endFill=0;exitX=1;exitY=0.5;exitDx=0;exitDy=0;entryX=0.003;entryY=0.472;entryDx=0;entryDy=0;entryPerimeter=0;fontFamily=Times New Roman;" parent="1" source="L22xxLEYPAmq4ZMWk_22-96" target="L22xxLEYPAmq4ZMWk_22-117" edge="1">
          <mxGeometry relative="1" as="geometry">
            <mxPoint x="1294.5" y="507.26" as="targetPoint" />
            <mxPoint x="1281" y="507.26" as="sourcePoint" />
            <Array as="points">
              <mxPoint x="1304" y="507" />
            </Array>
          </mxGeometry>
        </mxCell>
        <mxCell id="L22xxLEYPAmq4ZMWk_22-156" value="\\" style="edgeLabel;html=1;align=center;verticalAlign=middle;resizable=0;points=[];fontFamily=Times New Roman;" parent="L22xxLEYPAmq4ZMWk_22-135" vertex="1" connectable="0">
          <mxGeometry x="-0.1624" relative="1" as="geometry">
            <mxPoint as="offset" />
          </mxGeometry>
        </mxCell>
        <mxCell id="L22xxLEYPAmq4ZMWk_22-150" value="&lt;font style=&quot;font-size: 6px;&quot;&gt;YES&lt;/font&gt;" style="text;html=1;align=center;verticalAlign=middle;whiteSpace=wrap;rounded=0;fontFamily=Times New Roman;fontStyle=1" parent="1" vertex="1">
          <mxGeometry x="1255" y="479.5" width="20" height="11.25" as="geometry" />
        </mxCell>
        <mxCell id="L22xxLEYPAmq4ZMWk_22-151" value="&lt;font style=&quot;font-size: 6px;&quot;&gt;YES&lt;/font&gt;" style="text;html=1;align=center;verticalAlign=middle;whiteSpace=wrap;rounded=0;fontFamily=Times New Roman;fontStyle=1" parent="1" vertex="1">
          <mxGeometry x="1255" y="521.5" width="20" height="11.25" as="geometry" />
        </mxCell>
        <mxCell id="L22xxLEYPAmq4ZMWk_22-152" value="&lt;font style=&quot;font-size: 6px;&quot;&gt;YES&lt;/font&gt;" style="text;html=1;align=center;verticalAlign=middle;whiteSpace=wrap;rounded=0;fontFamily=Times New Roman;fontStyle=1" parent="1" vertex="1">
          <mxGeometry x="1254" y="570" width="20" height="11.25" as="geometry" />
        </mxCell>
        <mxCell id="L22xxLEYPAmq4ZMWk_22-154" value="&lt;font style=&quot;font-size: 6px;&quot;&gt;NO&lt;/font&gt;" style="text;html=1;align=center;verticalAlign=middle;whiteSpace=wrap;rounded=0;fontFamily=Times New Roman;fontStyle=1" parent="1" vertex="1">
          <mxGeometry x="1264" y="451.25" width="20" height="8.75" as="geometry" />
        </mxCell>
        <mxCell id="L22xxLEYPAmq4ZMWk_22-157" value="&lt;font style=&quot;font-size: 6px;&quot;&gt;NO&lt;/font&gt;" style="text;html=1;align=center;verticalAlign=middle;whiteSpace=wrap;rounded=0;fontFamily=Times New Roman;fontStyle=1" parent="1" vertex="1">
          <mxGeometry x="1265.5" y="496.75" width="20" height="8.75" as="geometry" />
        </mxCell>
        <mxCell id="L22xxLEYPAmq4ZMWk_22-158" value="&lt;font style=&quot;font-size: 6px;&quot;&gt;NO&lt;/font&gt;" style="text;html=1;align=center;verticalAlign=middle;whiteSpace=wrap;rounded=0;fontFamily=Times New Roman;fontStyle=1" parent="1" vertex="1">
          <mxGeometry x="1265.5" y="542.5" width="20" height="8.75" as="geometry" />
        </mxCell>
        <mxCell id="L22xxLEYPAmq4ZMWk_22-336" value="" style="shape=curlyBracket;whiteSpace=wrap;html=1;rounded=1;labelPosition=left;verticalLabelPosition=middle;align=right;verticalAlign=middle;rotation=0;fontFamily=Times New Roman;" parent="1" vertex="1">
          <mxGeometry x="730" y="319.5" width="10" height="50" as="geometry" />
        </mxCell>
        <mxCell id="L22xxLEYPAmq4ZMWk_22-337" value="" style="rounded=0;orthogonalLoop=1;jettySize=auto;html=1;endArrow=none;endFill=0;fontFamily=Times New Roman;" parent="1" source="L22xxLEYPAmq4ZMWk_22-340" target="L22xxLEYPAmq4ZMWk_22-344" edge="1">
          <mxGeometry relative="1" as="geometry" />
        </mxCell>
        <mxCell id="L22xxLEYPAmq4ZMWk_22-338" style="edgeStyle=orthogonalEdgeStyle;rounded=0;orthogonalLoop=1;jettySize=auto;html=1;endArrow=none;endFill=0;fontFamily=Times New Roman;" parent="1" source="L22xxLEYPAmq4ZMWk_22-340" edge="1">
          <mxGeometry relative="1" as="geometry">
            <mxPoint x="770" y="447" as="targetPoint" />
          </mxGeometry>
        </mxCell>
        <mxCell id="L22xxLEYPAmq4ZMWk_22-339" value="//" style="edgeLabel;html=1;align=center;verticalAlign=middle;resizable=0;points=[];fontFamily=Times New Roman;" parent="L22xxLEYPAmq4ZMWk_22-338" vertex="1" connectable="0">
          <mxGeometry x="-0.0132" y="-1" relative="1" as="geometry">
            <mxPoint as="offset" />
          </mxGeometry>
        </mxCell>
        <mxCell id="L22xxLEYPAmq4ZMWk_22-340" value="" style="rhombus;whiteSpace=wrap;html=1;fontFamily=Times New Roman;fillColor=#f5f5f5;fontColor=#333333;strokeColor=#666666;" parent="1" vertex="1">
          <mxGeometry x="757.5" y="392" width="25" height="25" as="geometry" />
        </mxCell>
        <mxCell id="L22xxLEYPAmq4ZMWk_22-341" style="edgeStyle=orthogonalEdgeStyle;rounded=0;orthogonalLoop=1;jettySize=auto;html=1;entryX=0.5;entryY=0;entryDx=0;entryDy=0;endArrow=none;endFill=0;fontFamily=Times New Roman;" parent="1" source="L22xxLEYPAmq4ZMWk_22-342" target="L22xxLEYPAmq4ZMWk_22-340" edge="1">
          <mxGeometry relative="1" as="geometry" />
        </mxCell>
        <mxCell id="L22xxLEYPAmq4ZMWk_22-342" value="" style="whiteSpace=wrap;html=1;aspect=fixed;fillColor=#f5f5f5;fontColor=#333333;strokeColor=#666666;fontFamily=Times New Roman;" parent="1" vertex="1">
          <mxGeometry x="750" y="327" width="40" height="40" as="geometry" />
        </mxCell>
        <mxCell id="L22xxLEYPAmq4ZMWk_22-343" value="" style="group;fontFamily=Times New Roman;" parent="1" vertex="1" connectable="0">
          <mxGeometry x="830" y="379.25" width="50" height="50" as="geometry" />
        </mxCell>
        <mxCell id="L22xxLEYPAmq4ZMWk_22-344" value="" style="whiteSpace=wrap;html=1;aspect=fixed;fillColor=#dae8fc;strokeColor=#6c8ebf;fontFamily=Times New Roman;" parent="L22xxLEYPAmq4ZMWk_22-343" vertex="1">
          <mxGeometry width="48" height="48" as="geometry" />
        </mxCell>
        <mxCell id="L22xxLEYPAmq4ZMWk_22-345" value="" style="endArrow=none;html=1;rounded=0;entryX=1.001;entryY=0.164;entryDx=0;entryDy=0;entryPerimeter=0;exitX=0;exitY=0.158;exitDx=0;exitDy=0;exitPerimeter=0;fillColor=#b1ddf0;strokeColor=#10739e;fontFamily=Times New Roman;" parent="L22xxLEYPAmq4ZMWk_22-343" source="L22xxLEYPAmq4ZMWk_22-344" target="L22xxLEYPAmq4ZMWk_22-344" edge="1">
          <mxGeometry width="50" height="50" relative="1" as="geometry">
            <mxPoint x="-110.37777777777774" y="22.22222222222222" as="sourcePoint" />
            <mxPoint x="0.7333333333333611" y="-77.77777777777777" as="targetPoint" />
          </mxGeometry>
        </mxCell>
        <mxCell id="L22xxLEYPAmq4ZMWk_22-346" value="&lt;b&gt;&lt;font style=&quot;font-size: 10px;&quot;&gt;MS Court&lt;/font&gt;&lt;/b&gt;" style="text;html=1;align=center;verticalAlign=middle;whiteSpace=wrap;rounded=0;fontFamily=Times New Roman;" parent="1" vertex="1">
          <mxGeometry x="680" y="331.5" width="50" height="20" as="geometry" />
        </mxCell>
        <mxCell id="L22xxLEYPAmq4ZMWk_22-347" value="" style="group;fontFamily=Times New Roman;" parent="1" vertex="1" connectable="0">
          <mxGeometry x="750" y="447" width="40" height="16" as="geometry" />
        </mxCell>
        <mxCell id="L22xxLEYPAmq4ZMWk_22-348" value="END" style="shape=process;whiteSpace=wrap;html=1;backgroundOutline=1;strokeWidth=0.5;container=0;fontSize=5;fontFamily=Times New Roman;align=center;" parent="L22xxLEYPAmq4ZMWk_22-347" vertex="1">
          <mxGeometry y="0.7999999999999997" width="40" height="15.200000000000001" as="geometry" />
        </mxCell>
        <mxCell id="L22xxLEYPAmq4ZMWk_22-349" value="" style="endArrow=none;html=1;rounded=0;exitX=0;exitY=0.75;exitDx=0;exitDy=0;entryX=1;entryY=0.75;entryDx=0;entryDy=0;strokeWidth=0.5;fontSize=5;fontFamily=Times New Roman;" parent="L22xxLEYPAmq4ZMWk_22-347" source="L22xxLEYPAmq4ZMWk_22-348" target="L22xxLEYPAmq4ZMWk_22-348" edge="1">
          <mxGeometry width="50" height="50" relative="1" as="geometry">
            <mxPoint x="10" y="3.366666666666651" as="sourcePoint" />
            <mxPoint x="16.25" y="-1.2999999999999998" as="targetPoint" />
          </mxGeometry>
        </mxCell>
        <mxCell id="L22xxLEYPAmq4ZMWk_22-350" value="" style="shape=curlyBracket;whiteSpace=wrap;html=1;rounded=1;labelPosition=left;verticalLabelPosition=middle;align=right;verticalAlign=middle;rotation=0;fontFamily=Times New Roman;" parent="1" vertex="1">
          <mxGeometry x="740" y="394.5" width="10" height="22.5" as="geometry" />
        </mxCell>
        <mxCell id="L22xxLEYPAmq4ZMWk_22-351" value="&lt;b&gt;&lt;font style=&quot;font-size: 10px;&quot;&gt;Referral&lt;/font&gt;&lt;/b&gt;" style="text;html=1;align=center;verticalAlign=middle;whiteSpace=wrap;rounded=0;fontFamily=Times New Roman;" parent="1" vertex="1">
          <mxGeometry x="700" y="390.75" width="40" height="27.5" as="geometry" />
        </mxCell>
        <mxCell id="L22xxLEYPAmq4ZMWk_22-352" value="" style="shape=curlyBracket;whiteSpace=wrap;html=1;rounded=1;labelPosition=left;verticalLabelPosition=middle;align=right;verticalAlign=middle;rotation=0;fontFamily=Times New Roman;direction=west;" parent="1" vertex="1">
          <mxGeometry x="897" y="373" width="10" height="62.5" as="geometry" />
        </mxCell>
        <mxCell id="L22xxLEYPAmq4ZMWk_22-353" value="&lt;b&gt;&lt;font style=&quot;font-size: 10px;&quot;&gt;ECJ&lt;/font&gt;&lt;/b&gt;" style="text;html=1;align=center;verticalAlign=middle;whiteSpace=wrap;rounded=0;fontFamily=Times New Roman;" parent="1" vertex="1">
          <mxGeometry x="907" y="394.25" width="30" height="20" as="geometry" />
        </mxCell>
        <mxCell id="L22xxLEYPAmq4ZMWk_22-354" value="&lt;font style=&quot;font-size: 6px;&quot;&gt;YES&lt;/font&gt;" style="text;html=1;align=center;verticalAlign=middle;whiteSpace=wrap;rounded=0;fontFamily=Times New Roman;fontStyle=1" parent="1" vertex="1">
          <mxGeometry x="782.5" y="389.5" width="20" height="11.25" as="geometry" />
        </mxCell>
        <mxCell id="L22xxLEYPAmq4ZMWk_22-355" value="&lt;font style=&quot;font-size: 6px;&quot;&gt;NO&lt;/font&gt;" style="text;html=1;align=center;verticalAlign=middle;whiteSpace=wrap;rounded=0;fontFamily=Times New Roman;fontStyle=1" parent="1" vertex="1">
          <mxGeometry x="767" y="415.75" width="20" height="8.75" as="geometry" />
        </mxCell>
        <mxCell id="L22xxLEYPAmq4ZMWk_22-356" value="&lt;h5&gt;&lt;font&gt;Process #3&lt;/font&gt;&lt;/h5&gt;" style="text;strokeColor=none;fillColor=none;html=1;fontSize=24;fontStyle=1;verticalAlign=middle;align=center;fontFamily=Times New Roman;" parent="1" vertex="1">
          <mxGeometry x="742.5" y="250" width="100" height="40" as="geometry" />
        </mxCell>
        <mxCell id="L22xxLEYPAmq4ZMWk_22-357" style="edgeStyle=orthogonalEdgeStyle;rounded=0;orthogonalLoop=1;jettySize=auto;html=1;entryX=0.5;entryY=0;entryDx=0;entryDy=0;endArrow=none;endFill=0;fontFamily=Times New Roman;" parent="1" source="L22xxLEYPAmq4ZMWk_22-358" target="L22xxLEYPAmq4ZMWk_22-359" edge="1">
          <mxGeometry relative="1" as="geometry" />
        </mxCell>
        <mxCell id="L22xxLEYPAmq4ZMWk_22-358" value="" style="rhombus;whiteSpace=wrap;html=1;fontFamily=Times New Roman;fillColor=#dae8fc;strokeColor=#6c8ebf;" parent="1" vertex="1">
          <mxGeometry x="841.5" y="449.5" width="25" height="25" as="geometry" />
        </mxCell>
        <mxCell id="L22xxLEYPAmq4ZMWk_22-359" value="" style="rhombus;whiteSpace=wrap;html=1;fontFamily=Times New Roman;fillColor=#dae8fc;strokeColor=#6c8ebf;" parent="1" vertex="1">
          <mxGeometry x="841.5" y="494" width="25" height="25" as="geometry" />
        </mxCell>
        <mxCell id="L22xxLEYPAmq4ZMWk_22-360" value="" style="shape=curlyBracket;whiteSpace=wrap;html=1;rounded=1;labelPosition=left;verticalLabelPosition=middle;align=right;verticalAlign=middle;rotation=0;fontFamily=Times New Roman;direction=west;" parent="1" vertex="1">
          <mxGeometry x="950" y="450.75" width="10" height="22.5" as="geometry" />
        </mxCell>
        <mxCell id="L22xxLEYPAmq4ZMWk_22-361" value="&lt;font style=&quot;font-size: 10px;&quot;&gt;Keep &quot;as is&quot;&lt;/font&gt;" style="text;html=1;align=left;verticalAlign=middle;whiteSpace=wrap;rounded=0;fontFamily=Times New Roman;fontStyle=1" parent="1" vertex="1">
          <mxGeometry x="960" y="447" width="62.5" height="27.5" as="geometry" />
        </mxCell>
        <mxCell id="L22xxLEYPAmq4ZMWk_22-362" value="" style="group;fontFamily=Times New Roman;" parent="1" vertex="1" connectable="0">
          <mxGeometry x="900" y="454" width="40" height="16" as="geometry" />
        </mxCell>
        <mxCell id="L22xxLEYPAmq4ZMWk_22-363" value="END" style="shape=process;whiteSpace=wrap;html=1;backgroundOutline=1;strokeWidth=0.5;container=0;fontSize=5;fontFamily=Times New Roman;align=center;" parent="L22xxLEYPAmq4ZMWk_22-362" vertex="1">
          <mxGeometry y="0.7999999999999997" width="40" height="15.200000000000001" as="geometry" />
        </mxCell>
        <mxCell id="L22xxLEYPAmq4ZMWk_22-364" value="" style="endArrow=none;html=1;rounded=0;exitX=0;exitY=0.75;exitDx=0;exitDy=0;entryX=1;entryY=0.75;entryDx=0;entryDy=0;strokeWidth=0.5;fontSize=5;fontFamily=Times New Roman;" parent="L22xxLEYPAmq4ZMWk_22-362" source="L22xxLEYPAmq4ZMWk_22-363" target="L22xxLEYPAmq4ZMWk_22-363" edge="1">
          <mxGeometry width="50" height="50" relative="1" as="geometry">
            <mxPoint x="10" y="3.366666666666651" as="sourcePoint" />
            <mxPoint x="16.25" y="-1.2999999999999998" as="targetPoint" />
          </mxGeometry>
        </mxCell>
        <mxCell id="L22xxLEYPAmq4ZMWk_22-365" style="edgeStyle=orthogonalEdgeStyle;rounded=0;orthogonalLoop=1;jettySize=auto;html=1;endArrow=none;endFill=0;fontFamily=Times New Roman;" parent="1" source="L22xxLEYPAmq4ZMWk_22-344" edge="1">
          <mxGeometry relative="1" as="geometry">
            <mxPoint x="854" y="449.5" as="targetPoint" />
          </mxGeometry>
        </mxCell>
        <mxCell id="L22xxLEYPAmq4ZMWk_22-366" value="" style="shape=curlyBracket;whiteSpace=wrap;html=1;rounded=1;labelPosition=left;verticalLabelPosition=middle;align=right;verticalAlign=middle;rotation=0;fontFamily=Times New Roman;direction=west;" parent="1" vertex="1">
          <mxGeometry x="950" y="495.25" width="10" height="22.5" as="geometry" />
        </mxCell>
        <mxCell id="L22xxLEYPAmq4ZMWk_22-367" value="" style="group;fontFamily=Times New Roman;" parent="1" vertex="1" connectable="0">
          <mxGeometry x="900" y="498.5" width="40" height="16" as="geometry" />
        </mxCell>
        <mxCell id="L22xxLEYPAmq4ZMWk_22-368" value="END" style="shape=process;whiteSpace=wrap;html=1;backgroundOutline=1;strokeWidth=0.5;container=0;fontSize=5;fontFamily=Times New Roman;align=center;" parent="L22xxLEYPAmq4ZMWk_22-367" vertex="1">
          <mxGeometry y="0.7999999999999997" width="40" height="15.200000000000001" as="geometry" />
        </mxCell>
        <mxCell id="L22xxLEYPAmq4ZMWk_22-369" value="" style="endArrow=none;html=1;rounded=0;exitX=0;exitY=0.75;exitDx=0;exitDy=0;entryX=1;entryY=0.75;entryDx=0;entryDy=0;strokeWidth=0.5;fontSize=5;fontFamily=Times New Roman;" parent="L22xxLEYPAmq4ZMWk_22-367" source="L22xxLEYPAmq4ZMWk_22-368" target="L22xxLEYPAmq4ZMWk_22-368" edge="1">
          <mxGeometry width="50" height="50" relative="1" as="geometry">
            <mxPoint x="10" y="3.366666666666651" as="sourcePoint" />
            <mxPoint x="16.25" y="-1.2999999999999998" as="targetPoint" />
          </mxGeometry>
        </mxCell>
        <mxCell id="L22xxLEYPAmq4ZMWk_22-370" value="&lt;font style=&quot;font-size: 10px;&quot;&gt;Answers Original &lt;br&gt;Claim formulation OJ&lt;/font&gt;" style="text;html=1;align=left;verticalAlign=middle;whiteSpace=wrap;rounded=0;fontFamily=Times New Roman;fontStyle=1" parent="1" vertex="1">
          <mxGeometry x="960" y="490.25" width="102.5" height="27.5" as="geometry" />
        </mxCell>
        <mxCell id="L22xxLEYPAmq4ZMWk_22-371" style="edgeStyle=orthogonalEdgeStyle;rounded=0;orthogonalLoop=1;jettySize=auto;html=1;entryX=0.5;entryY=0;entryDx=0;entryDy=0;endArrow=none;endFill=0;fontFamily=Times New Roman;" parent="1" source="L22xxLEYPAmq4ZMWk_22-372" edge="1">
          <mxGeometry relative="1" as="geometry">
            <mxPoint x="854" y="600.8" as="targetPoint" />
          </mxGeometry>
        </mxCell>
        <mxCell id="WVFoBW6a4ryBcwZJH06N-7" value="\\" style="edgeLabel;html=1;align=center;verticalAlign=middle;resizable=0;points=[];fontFamily=Times New Roman;" vertex="1" connectable="0" parent="L22xxLEYPAmq4ZMWk_22-371">
          <mxGeometry x="0.5379" relative="1" as="geometry">
            <mxPoint y="-9" as="offset" />
          </mxGeometry>
        </mxCell>
        <mxCell id="L22xxLEYPAmq4ZMWk_22-372" value="" style="rhombus;whiteSpace=wrap;html=1;fontFamily=Times New Roman;fillColor=#dae8fc;strokeColor=#6c8ebf;" parent="1" vertex="1">
          <mxGeometry x="841.5" y="539.5" width="25" height="25" as="geometry" />
        </mxCell>
        <mxCell id="L22xxLEYPAmq4ZMWk_22-373" value="" style="group;fontFamily=Times New Roman;" parent="1" vertex="1" connectable="0">
          <mxGeometry x="900" y="544" width="40" height="16" as="geometry" />
        </mxCell>
        <mxCell id="L22xxLEYPAmq4ZMWk_22-374" value="END" style="shape=process;whiteSpace=wrap;html=1;backgroundOutline=1;strokeWidth=0.5;container=0;fontSize=5;fontFamily=Times New Roman;align=center;" parent="L22xxLEYPAmq4ZMWk_22-373" vertex="1">
          <mxGeometry y="0.7999999999999997" width="40" height="15.200000000000001" as="geometry" />
        </mxCell>
        <mxCell id="L22xxLEYPAmq4ZMWk_22-375" value="" style="endArrow=none;html=1;rounded=0;exitX=0;exitY=0.75;exitDx=0;exitDy=0;entryX=1;entryY=0.75;entryDx=0;entryDy=0;strokeWidth=0.5;fontSize=5;fontFamily=Times New Roman;" parent="L22xxLEYPAmq4ZMWk_22-373" source="L22xxLEYPAmq4ZMWk_22-374" target="L22xxLEYPAmq4ZMWk_22-374" edge="1">
          <mxGeometry width="50" height="50" relative="1" as="geometry">
            <mxPoint x="10" y="3.366666666666651" as="sourcePoint" />
            <mxPoint x="16.25" y="-1.2999999999999998" as="targetPoint" />
          </mxGeometry>
        </mxCell>
        <mxCell id="L22xxLEYPAmq4ZMWk_22-376" style="edgeStyle=orthogonalEdgeStyle;rounded=0;orthogonalLoop=1;jettySize=auto;html=1;entryX=-0.007;entryY=0.459;entryDx=0;entryDy=0;entryPerimeter=0;targetPerimeterSpacing=-1;endArrow=none;endFill=0;exitX=1;exitY=0.5;exitDx=0;exitDy=0;fontFamily=Times New Roman;" parent="L22xxLEYPAmq4ZMWk_22-373" source="L22xxLEYPAmq4ZMWk_22-372" edge="1">
          <mxGeometry relative="1" as="geometry">
            <mxPoint x="-20.72160771704182" y="8.111607717041807" as="sourcePoint" />
            <mxPoint x="1.1368683772161603e-13" y="7.886799999999994" as="targetPoint" />
          </mxGeometry>
        </mxCell>
        <mxCell id="L22xxLEYPAmq4ZMWk_22-378" style="edgeStyle=orthogonalEdgeStyle;rounded=0;orthogonalLoop=1;jettySize=auto;html=1;entryX=0.463;entryY=-0.054;entryDx=0;entryDy=0;entryPerimeter=0;endArrow=none;endFill=0;fontFamily=Times New Roman;" parent="1" source="L22xxLEYPAmq4ZMWk_22-359" target="L22xxLEYPAmq4ZMWk_22-372" edge="1">
          <mxGeometry relative="1" as="geometry" />
        </mxCell>
        <mxCell id="L22xxLEYPAmq4ZMWk_22-379" value="" style="shape=curlyBracket;whiteSpace=wrap;html=1;rounded=1;labelPosition=left;verticalLabelPosition=middle;align=right;verticalAlign=middle;rotation=0;fontFamily=Times New Roman;direction=west;" parent="1" vertex="1">
          <mxGeometry x="949.5" y="542" width="10" height="22.5" as="geometry" />
        </mxCell>
        <mxCell id="L22xxLEYPAmq4ZMWk_22-380" value="&lt;span style=&quot;font-size: 10px;&quot;&gt;Previously Raised&lt;/span&gt;" style="text;html=1;align=left;verticalAlign=middle;whiteSpace=wrap;rounded=0;fontFamily=Times New Roman;fontStyle=1" parent="1" vertex="1">
          <mxGeometry x="959.5" y="537" width="102.5" height="27.5" as="geometry" />
        </mxCell>
        <mxCell id="L22xxLEYPAmq4ZMWk_22-381" style="edgeStyle=orthogonalEdgeStyle;rounded=0;orthogonalLoop=1;jettySize=auto;html=1;entryX=1;entryY=0.5;entryDx=0;entryDy=0;endArrow=none;endFill=0;exitX=-0.001;exitY=0.438;exitDx=0;exitDy=0;exitPerimeter=0;fontFamily=Times New Roman;" parent="1" source="L22xxLEYPAmq4ZMWk_22-363" edge="1">
          <mxGeometry relative="1" as="geometry">
            <mxPoint x="887.5" y="462.1992248062015" as="sourcePoint" />
            <mxPoint x="866.5" y="461.79999999999995" as="targetPoint" />
          </mxGeometry>
        </mxCell>
        <mxCell id="L22xxLEYPAmq4ZMWk_22-382" value="\\" style="edgeLabel;html=1;align=center;verticalAlign=middle;resizable=0;points=[];fontFamily=Times New Roman;" parent="L22xxLEYPAmq4ZMWk_22-381" vertex="1" connectable="0">
          <mxGeometry x="0.1744" relative="1" as="geometry">
            <mxPoint as="offset" />
          </mxGeometry>
        </mxCell>
        <mxCell id="L22xxLEYPAmq4ZMWk_22-386" style="edgeStyle=orthogonalEdgeStyle;rounded=0;orthogonalLoop=1;jettySize=auto;html=1;endArrow=none;endFill=0;exitX=1;exitY=0.5;exitDx=0;exitDy=0;entryX=0.003;entryY=0.472;entryDx=0;entryDy=0;entryPerimeter=0;fontFamily=Times New Roman;" parent="1" source="L22xxLEYPAmq4ZMWk_22-359" target="L22xxLEYPAmq4ZMWk_22-368" edge="1">
          <mxGeometry relative="1" as="geometry">
            <mxPoint x="890.5" y="506.76" as="targetPoint" />
            <mxPoint x="877" y="506.76" as="sourcePoint" />
            <Array as="points">
              <mxPoint x="900" y="506.5" />
            </Array>
          </mxGeometry>
        </mxCell>
        <mxCell id="L22xxLEYPAmq4ZMWk_22-387" value="\\" style="edgeLabel;html=1;align=center;verticalAlign=middle;resizable=0;points=[];fontFamily=Times New Roman;" parent="L22xxLEYPAmq4ZMWk_22-386" vertex="1" connectable="0">
          <mxGeometry x="-0.1624" relative="1" as="geometry">
            <mxPoint as="offset" />
          </mxGeometry>
        </mxCell>
        <mxCell id="L22xxLEYPAmq4ZMWk_22-388" value="&lt;font style=&quot;font-size: 6px;&quot;&gt;YES&lt;/font&gt;" style="text;html=1;align=center;verticalAlign=middle;whiteSpace=wrap;rounded=0;fontFamily=Times New Roman;fontStyle=1" parent="1" vertex="1">
          <mxGeometry x="851" y="479" width="20" height="11.25" as="geometry" />
        </mxCell>
        <mxCell id="L22xxLEYPAmq4ZMWk_22-389" value="&lt;font style=&quot;font-size: 6px;&quot;&gt;YES&lt;/font&gt;" style="text;html=1;align=center;verticalAlign=middle;whiteSpace=wrap;rounded=0;fontFamily=Times New Roman;fontStyle=1" parent="1" vertex="1">
          <mxGeometry x="851" y="521" width="20" height="11.25" as="geometry" />
        </mxCell>
        <mxCell id="L22xxLEYPAmq4ZMWk_22-390" value="&lt;font style=&quot;font-size: 6px;&quot;&gt;YES&lt;/font&gt;" style="text;html=1;align=center;verticalAlign=middle;whiteSpace=wrap;rounded=0;fontFamily=Times New Roman;fontStyle=1" parent="1" vertex="1">
          <mxGeometry x="851" y="564.5" width="20" height="11.25" as="geometry" />
        </mxCell>
        <mxCell id="L22xxLEYPAmq4ZMWk_22-392" value="&lt;font style=&quot;font-size: 6px;&quot;&gt;NO&lt;/font&gt;" style="text;html=1;align=center;verticalAlign=middle;whiteSpace=wrap;rounded=0;fontFamily=Times New Roman;fontStyle=1" parent="1" vertex="1">
          <mxGeometry x="860" y="450.75" width="20" height="8.75" as="geometry" />
        </mxCell>
        <mxCell id="L22xxLEYPAmq4ZMWk_22-393" value="&lt;font style=&quot;font-size: 6px;&quot;&gt;NO&lt;/font&gt;" style="text;html=1;align=center;verticalAlign=middle;whiteSpace=wrap;rounded=0;fontFamily=Times New Roman;fontStyle=1" parent="1" vertex="1">
          <mxGeometry x="861.5" y="496.25" width="20" height="8.75" as="geometry" />
        </mxCell>
        <mxCell id="L22xxLEYPAmq4ZMWk_22-394" value="&lt;font style=&quot;font-size: 6px;&quot;&gt;NO&lt;/font&gt;" style="text;html=1;align=center;verticalAlign=middle;whiteSpace=wrap;rounded=0;fontFamily=Times New Roman;fontStyle=1" parent="1" vertex="1">
          <mxGeometry x="861.5" y="542" width="20" height="8.75" as="geometry" />
        </mxCell>
        <mxCell id="L22xxLEYPAmq4ZMWk_22-512" value="" style="shape=curlyBracket;whiteSpace=wrap;html=1;rounded=1;labelPosition=left;verticalLabelPosition=middle;align=right;verticalAlign=middle;rotation=0;fontFamily=Times New Roman;" parent="1" vertex="1">
          <mxGeometry x="370" y="300" width="10" height="50" as="geometry" />
        </mxCell>
        <mxCell id="L22xxLEYPAmq4ZMWk_22-513" value="" style="rounded=0;orthogonalLoop=1;jettySize=auto;html=1;endArrow=none;endFill=0;fontFamily=Times New Roman;" parent="1" source="L22xxLEYPAmq4ZMWk_22-516" target="L22xxLEYPAmq4ZMWk_22-520" edge="1">
          <mxGeometry relative="1" as="geometry" />
        </mxCell>
        <mxCell id="L22xxLEYPAmq4ZMWk_22-514" style="edgeStyle=orthogonalEdgeStyle;rounded=0;orthogonalLoop=1;jettySize=auto;html=1;endArrow=none;endFill=0;fontFamily=Times New Roman;" parent="1" source="L22xxLEYPAmq4ZMWk_22-516" edge="1">
          <mxGeometry relative="1" as="geometry">
            <mxPoint x="410" y="427.5" as="targetPoint" />
          </mxGeometry>
        </mxCell>
        <mxCell id="L22xxLEYPAmq4ZMWk_22-515" value="//" style="edgeLabel;html=1;align=center;verticalAlign=middle;resizable=0;points=[];fontFamily=Times New Roman;" parent="L22xxLEYPAmq4ZMWk_22-514" vertex="1" connectable="0">
          <mxGeometry x="-0.0132" y="-1" relative="1" as="geometry">
            <mxPoint as="offset" />
          </mxGeometry>
        </mxCell>
        <mxCell id="L22xxLEYPAmq4ZMWk_22-516" value="" style="rhombus;whiteSpace=wrap;html=1;fontFamily=Times New Roman;fillColor=#f5f5f5;fontColor=#333333;strokeColor=#666666;" parent="1" vertex="1">
          <mxGeometry x="397.5" y="372.5" width="25" height="25" as="geometry" />
        </mxCell>
        <mxCell id="L22xxLEYPAmq4ZMWk_22-517" style="edgeStyle=orthogonalEdgeStyle;rounded=0;orthogonalLoop=1;jettySize=auto;html=1;entryX=0.5;entryY=0;entryDx=0;entryDy=0;endArrow=none;endFill=0;fontFamily=Times New Roman;" parent="1" source="L22xxLEYPAmq4ZMWk_22-518" target="L22xxLEYPAmq4ZMWk_22-516" edge="1">
          <mxGeometry relative="1" as="geometry" />
        </mxCell>
        <mxCell id="L22xxLEYPAmq4ZMWk_22-518" value="" style="whiteSpace=wrap;html=1;aspect=fixed;fillColor=#f5f5f5;fontColor=#333333;strokeColor=#666666;fontFamily=Times New Roman;" parent="1" vertex="1">
          <mxGeometry x="390" y="307.5" width="40" height="40" as="geometry" />
        </mxCell>
        <mxCell id="L22xxLEYPAmq4ZMWk_22-519" value="" style="group;fontFamily=Times New Roman;" parent="1" vertex="1" connectable="0">
          <mxGeometry x="470" y="359.75" width="50" height="50" as="geometry" />
        </mxCell>
        <mxCell id="L22xxLEYPAmq4ZMWk_22-520" value="" style="whiteSpace=wrap;html=1;aspect=fixed;fillColor=#dae8fc;strokeColor=#6c8ebf;fontFamily=Times New Roman;" parent="L22xxLEYPAmq4ZMWk_22-519" vertex="1">
          <mxGeometry width="48" height="48" as="geometry" />
        </mxCell>
        <mxCell id="L22xxLEYPAmq4ZMWk_22-521" value="" style="endArrow=none;html=1;rounded=0;entryX=1.001;entryY=0.164;entryDx=0;entryDy=0;entryPerimeter=0;exitX=0;exitY=0.158;exitDx=0;exitDy=0;exitPerimeter=0;fillColor=#b1ddf0;strokeColor=#10739e;fontFamily=Times New Roman;" parent="L22xxLEYPAmq4ZMWk_22-519" source="L22xxLEYPAmq4ZMWk_22-520" target="L22xxLEYPAmq4ZMWk_22-520" edge="1">
          <mxGeometry width="50" height="50" relative="1" as="geometry">
            <mxPoint x="-110.37777777777774" y="22.22222222222222" as="sourcePoint" />
            <mxPoint x="0.7333333333333611" y="-77.77777777777777" as="targetPoint" />
          </mxGeometry>
        </mxCell>
        <mxCell id="L22xxLEYPAmq4ZMWk_22-522" value="&lt;b&gt;&lt;font style=&quot;font-size: 10px;&quot;&gt;MS Court&lt;/font&gt;&lt;/b&gt;" style="text;html=1;align=center;verticalAlign=middle;whiteSpace=wrap;rounded=0;fontFamily=Times New Roman;" parent="1" vertex="1">
          <mxGeometry x="320" y="312" width="50" height="20" as="geometry" />
        </mxCell>
        <mxCell id="L22xxLEYPAmq4ZMWk_22-523" value="" style="group;fontFamily=Times New Roman;" parent="1" vertex="1" connectable="0">
          <mxGeometry x="390" y="427.5" width="40" height="16" as="geometry" />
        </mxCell>
        <mxCell id="L22xxLEYPAmq4ZMWk_22-524" value="END" style="shape=process;whiteSpace=wrap;html=1;backgroundOutline=1;strokeWidth=0.5;container=0;fontSize=5;fontFamily=Times New Roman;align=center;" parent="L22xxLEYPAmq4ZMWk_22-523" vertex="1">
          <mxGeometry y="0.7999999999999997" width="40" height="15.200000000000001" as="geometry" />
        </mxCell>
        <mxCell id="L22xxLEYPAmq4ZMWk_22-525" value="" style="endArrow=none;html=1;rounded=0;exitX=0;exitY=0.75;exitDx=0;exitDy=0;entryX=1;entryY=0.75;entryDx=0;entryDy=0;strokeWidth=0.5;fontSize=5;fontFamily=Times New Roman;" parent="L22xxLEYPAmq4ZMWk_22-523" source="L22xxLEYPAmq4ZMWk_22-524" target="L22xxLEYPAmq4ZMWk_22-524" edge="1">
          <mxGeometry width="50" height="50" relative="1" as="geometry">
            <mxPoint x="10" y="3.366666666666651" as="sourcePoint" />
            <mxPoint x="16.25" y="-1.2999999999999998" as="targetPoint" />
          </mxGeometry>
        </mxCell>
        <mxCell id="L22xxLEYPAmq4ZMWk_22-526" value="" style="shape=curlyBracket;whiteSpace=wrap;html=1;rounded=1;labelPosition=left;verticalLabelPosition=middle;align=right;verticalAlign=middle;rotation=0;fontFamily=Times New Roman;" parent="1" vertex="1">
          <mxGeometry x="380" y="375" width="10" height="22.5" as="geometry" />
        </mxCell>
        <mxCell id="L22xxLEYPAmq4ZMWk_22-527" value="&lt;b&gt;&lt;font style=&quot;font-size: 10px;&quot;&gt;Referral&lt;/font&gt;&lt;/b&gt;" style="text;html=1;align=center;verticalAlign=middle;whiteSpace=wrap;rounded=0;fontFamily=Times New Roman;" parent="1" vertex="1">
          <mxGeometry x="340" y="371.25" width="40" height="27.5" as="geometry" />
        </mxCell>
        <mxCell id="L22xxLEYPAmq4ZMWk_22-528" value="" style="shape=curlyBracket;whiteSpace=wrap;html=1;rounded=1;labelPosition=left;verticalLabelPosition=middle;align=right;verticalAlign=middle;rotation=0;fontFamily=Times New Roman;direction=west;" parent="1" vertex="1">
          <mxGeometry x="537" y="353.5" width="10" height="62.5" as="geometry" />
        </mxCell>
        <mxCell id="L22xxLEYPAmq4ZMWk_22-529" value="&lt;b&gt;&lt;font style=&quot;font-size: 10px;&quot;&gt;ECJ&lt;/font&gt;&lt;/b&gt;" style="text;html=1;align=center;verticalAlign=middle;whiteSpace=wrap;rounded=0;fontFamily=Times New Roman;" parent="1" vertex="1">
          <mxGeometry x="547" y="374.75" width="30" height="20" as="geometry" />
        </mxCell>
        <mxCell id="L22xxLEYPAmq4ZMWk_22-530" value="&lt;font style=&quot;font-size: 6px;&quot;&gt;YES&lt;/font&gt;" style="text;html=1;align=center;verticalAlign=middle;whiteSpace=wrap;rounded=0;fontFamily=Times New Roman;fontStyle=1" parent="1" vertex="1">
          <mxGeometry x="422.5" y="370" width="20" height="11.25" as="geometry" />
        </mxCell>
        <mxCell id="L22xxLEYPAmq4ZMWk_22-531" value="&lt;font style=&quot;font-size: 6px;&quot;&gt;NO&lt;/font&gt;" style="text;html=1;align=center;verticalAlign=middle;whiteSpace=wrap;rounded=0;fontFamily=Times New Roman;fontStyle=1" parent="1" vertex="1">
          <mxGeometry x="407" y="396.25" width="20" height="8.75" as="geometry" />
        </mxCell>
        <mxCell id="L22xxLEYPAmq4ZMWk_22-533" value="" style="rhombus;whiteSpace=wrap;html=1;fontFamily=Times New Roman;fillColor=#dae8fc;strokeColor=#6c8ebf;" parent="1" vertex="1">
          <mxGeometry x="481.5" y="430" width="25" height="25" as="geometry" />
        </mxCell>
        <mxCell id="L22xxLEYPAmq4ZMWk_22-535" value="" style="shape=curlyBracket;whiteSpace=wrap;html=1;rounded=1;labelPosition=left;verticalLabelPosition=middle;align=right;verticalAlign=middle;rotation=0;fontFamily=Times New Roman;direction=west;" parent="1" vertex="1">
          <mxGeometry x="590" y="431.25" width="10" height="22.5" as="geometry" />
        </mxCell>
        <mxCell id="L22xxLEYPAmq4ZMWk_22-536" value="&lt;font style=&quot;font-size: 10px;&quot;&gt;Keep &quot;as is&quot;&lt;/font&gt;" style="text;html=1;align=left;verticalAlign=middle;whiteSpace=wrap;rounded=0;fontFamily=Times New Roman;fontStyle=1" parent="1" vertex="1">
          <mxGeometry x="600" y="427.5" width="62.5" height="27.5" as="geometry" />
        </mxCell>
        <mxCell id="L22xxLEYPAmq4ZMWk_22-537" value="" style="group;fontFamily=Times New Roman;" parent="1" vertex="1" connectable="0">
          <mxGeometry x="537" y="434.5" width="40" height="16" as="geometry" />
        </mxCell>
        <mxCell id="L22xxLEYPAmq4ZMWk_22-538" value="END" style="shape=process;whiteSpace=wrap;html=1;backgroundOutline=1;strokeWidth=0.5;container=0;fontSize=5;fontFamily=Times New Roman;align=center;" parent="L22xxLEYPAmq4ZMWk_22-537" vertex="1">
          <mxGeometry y="0.7999999999999997" width="40" height="15.200000000000001" as="geometry" />
        </mxCell>
        <mxCell id="L22xxLEYPAmq4ZMWk_22-539" value="" style="endArrow=none;html=1;rounded=0;exitX=0;exitY=0.75;exitDx=0;exitDy=0;entryX=1;entryY=0.75;entryDx=0;entryDy=0;strokeWidth=0.5;fontSize=5;fontFamily=Times New Roman;" parent="L22xxLEYPAmq4ZMWk_22-537" source="L22xxLEYPAmq4ZMWk_22-538" target="L22xxLEYPAmq4ZMWk_22-538" edge="1">
          <mxGeometry width="50" height="50" relative="1" as="geometry">
            <mxPoint x="10" y="3.366666666666651" as="sourcePoint" />
            <mxPoint x="16.25" y="-1.2999999999999998" as="targetPoint" />
          </mxGeometry>
        </mxCell>
        <mxCell id="L22xxLEYPAmq4ZMWk_22-540" style="edgeStyle=orthogonalEdgeStyle;rounded=0;orthogonalLoop=1;jettySize=auto;html=1;endArrow=none;endFill=0;fontFamily=Times New Roman;" parent="1" source="L22xxLEYPAmq4ZMWk_22-520" edge="1">
          <mxGeometry relative="1" as="geometry">
            <mxPoint x="494" y="430" as="targetPoint" />
          </mxGeometry>
        </mxCell>
        <mxCell id="L22xxLEYPAmq4ZMWk_22-556" style="edgeStyle=orthogonalEdgeStyle;rounded=0;orthogonalLoop=1;jettySize=auto;html=1;entryX=1;entryY=0.5;entryDx=0;entryDy=0;endArrow=none;endFill=0;exitX=-0.001;exitY=0.438;exitDx=0;exitDy=0;exitPerimeter=0;fontFamily=Times New Roman;" parent="1" source="L22xxLEYPAmq4ZMWk_22-538" edge="1">
          <mxGeometry relative="1" as="geometry">
            <mxPoint x="527.5" y="442.6992248062015" as="sourcePoint" />
            <mxPoint x="506.5" y="442.29999999999995" as="targetPoint" />
          </mxGeometry>
        </mxCell>
        <mxCell id="L22xxLEYPAmq4ZMWk_22-567" value="&lt;font style=&quot;font-size: 6px;&quot;&gt;NO&lt;/font&gt;" style="text;html=1;align=center;verticalAlign=middle;whiteSpace=wrap;rounded=0;fontFamily=Times New Roman;fontStyle=1" parent="1" vertex="1">
          <mxGeometry x="510" y="431.13" width="20" height="8.75" as="geometry" />
        </mxCell>
        <mxCell id="L22xxLEYPAmq4ZMWk_22-571" value="&lt;h5&gt;&lt;font&gt;Process #2&lt;/font&gt;&lt;/h5&gt;" style="text;strokeColor=none;fillColor=none;html=1;fontSize=24;fontStyle=1;verticalAlign=middle;align=center;fontFamily=Times New Roman;" parent="1" vertex="1">
          <mxGeometry x="438.75" y="526.38" width="100" height="40" as="geometry" />
        </mxCell>
        <mxCell id="L22xxLEYPAmq4ZMWk_22-572" value="" style="shape=curlyBracket;whiteSpace=wrap;html=1;rounded=1;labelPosition=left;verticalLabelPosition=middle;align=right;verticalAlign=middle;rotation=0;fontFamily=Times New Roman;" parent="1" vertex="1">
          <mxGeometry x="348.75" y="560" width="10" height="50" as="geometry" />
        </mxCell>
        <mxCell id="L22xxLEYPAmq4ZMWk_22-573" value="" style="rounded=0;orthogonalLoop=1;jettySize=auto;html=1;endArrow=none;endFill=0;fontFamily=Times New Roman;" parent="1" source="L22xxLEYPAmq4ZMWk_22-576" target="L22xxLEYPAmq4ZMWk_22-580" edge="1">
          <mxGeometry relative="1" as="geometry" />
        </mxCell>
        <mxCell id="L22xxLEYPAmq4ZMWk_22-574" style="edgeStyle=orthogonalEdgeStyle;rounded=0;orthogonalLoop=1;jettySize=auto;html=1;endArrow=none;endFill=0;fontFamily=Times New Roman;" parent="1" source="L22xxLEYPAmq4ZMWk_22-576" edge="1">
          <mxGeometry relative="1" as="geometry">
            <mxPoint x="388.75" y="687.5" as="targetPoint" />
          </mxGeometry>
        </mxCell>
        <mxCell id="L22xxLEYPAmq4ZMWk_22-575" value="//" style="edgeLabel;html=1;align=center;verticalAlign=middle;resizable=0;points=[];fontFamily=Times New Roman;" parent="L22xxLEYPAmq4ZMWk_22-574" vertex="1" connectable="0">
          <mxGeometry x="-0.0132" y="-1" relative="1" as="geometry">
            <mxPoint as="offset" />
          </mxGeometry>
        </mxCell>
        <mxCell id="L22xxLEYPAmq4ZMWk_22-576" value="" style="rhombus;whiteSpace=wrap;html=1;fontFamily=Times New Roman;fillColor=#f5f5f5;fontColor=#333333;strokeColor=#666666;" parent="1" vertex="1">
          <mxGeometry x="376.25" y="632.5" width="25" height="25" as="geometry" />
        </mxCell>
        <mxCell id="L22xxLEYPAmq4ZMWk_22-577" style="edgeStyle=orthogonalEdgeStyle;rounded=0;orthogonalLoop=1;jettySize=auto;html=1;entryX=0.5;entryY=0;entryDx=0;entryDy=0;endArrow=none;endFill=0;fontFamily=Times New Roman;" parent="1" source="L22xxLEYPAmq4ZMWk_22-578" target="L22xxLEYPAmq4ZMWk_22-576" edge="1">
          <mxGeometry relative="1" as="geometry" />
        </mxCell>
        <mxCell id="L22xxLEYPAmq4ZMWk_22-578" value="" style="whiteSpace=wrap;html=1;aspect=fixed;fillColor=#f5f5f5;fontColor=#333333;strokeColor=#666666;fontFamily=Times New Roman;" parent="1" vertex="1">
          <mxGeometry x="368.75" y="567.5" width="40" height="40" as="geometry" />
        </mxCell>
        <mxCell id="L22xxLEYPAmq4ZMWk_22-579" value="" style="group;fontFamily=Times New Roman;" parent="1" vertex="1" connectable="0">
          <mxGeometry x="448.75" y="619.75" width="50" height="50" as="geometry" />
        </mxCell>
        <mxCell id="L22xxLEYPAmq4ZMWk_22-580" value="" style="whiteSpace=wrap;html=1;aspect=fixed;fillColor=#dae8fc;strokeColor=#6c8ebf;fontFamily=Times New Roman;" parent="L22xxLEYPAmq4ZMWk_22-579" vertex="1">
          <mxGeometry width="48" height="48" as="geometry" />
        </mxCell>
        <mxCell id="L22xxLEYPAmq4ZMWk_22-581" value="" style="endArrow=none;html=1;rounded=0;entryX=1.001;entryY=0.164;entryDx=0;entryDy=0;entryPerimeter=0;exitX=0;exitY=0.158;exitDx=0;exitDy=0;exitPerimeter=0;fillColor=#b1ddf0;strokeColor=#10739e;fontFamily=Times New Roman;" parent="L22xxLEYPAmq4ZMWk_22-579" source="L22xxLEYPAmq4ZMWk_22-580" target="L22xxLEYPAmq4ZMWk_22-580" edge="1">
          <mxGeometry width="50" height="50" relative="1" as="geometry">
            <mxPoint x="-110.37777777777774" y="22.22222222222222" as="sourcePoint" />
            <mxPoint x="0.7333333333333611" y="-77.77777777777777" as="targetPoint" />
          </mxGeometry>
        </mxCell>
        <mxCell id="L22xxLEYPAmq4ZMWk_22-582" value="&lt;b&gt;&lt;font style=&quot;font-size: 10px;&quot;&gt;MS Court&lt;/font&gt;&lt;/b&gt;" style="text;html=1;align=center;verticalAlign=middle;whiteSpace=wrap;rounded=0;fontFamily=Times New Roman;" parent="1" vertex="1">
          <mxGeometry x="298.75" y="572" width="50" height="20" as="geometry" />
        </mxCell>
        <mxCell id="L22xxLEYPAmq4ZMWk_22-583" value="" style="group;fontFamily=Times New Roman;" parent="1" vertex="1" connectable="0">
          <mxGeometry x="368.75" y="687.5" width="40" height="16" as="geometry" />
        </mxCell>
        <mxCell id="L22xxLEYPAmq4ZMWk_22-584" value="END" style="shape=process;whiteSpace=wrap;html=1;backgroundOutline=1;strokeWidth=0.5;container=0;fontSize=5;fontFamily=Times New Roman;align=center;" parent="L22xxLEYPAmq4ZMWk_22-583" vertex="1">
          <mxGeometry y="0.7999999999999997" width="40" height="15.200000000000001" as="geometry" />
        </mxCell>
        <mxCell id="L22xxLEYPAmq4ZMWk_22-585" value="" style="endArrow=none;html=1;rounded=0;exitX=0;exitY=0.75;exitDx=0;exitDy=0;entryX=1;entryY=0.75;entryDx=0;entryDy=0;strokeWidth=0.5;fontSize=5;fontFamily=Times New Roman;" parent="L22xxLEYPAmq4ZMWk_22-583" source="L22xxLEYPAmq4ZMWk_22-584" target="L22xxLEYPAmq4ZMWk_22-584" edge="1">
          <mxGeometry width="50" height="50" relative="1" as="geometry">
            <mxPoint x="10" y="3.366666666666651" as="sourcePoint" />
            <mxPoint x="16.25" y="-1.2999999999999998" as="targetPoint" />
          </mxGeometry>
        </mxCell>
        <mxCell id="L22xxLEYPAmq4ZMWk_22-586" value="" style="shape=curlyBracket;whiteSpace=wrap;html=1;rounded=1;labelPosition=left;verticalLabelPosition=middle;align=right;verticalAlign=middle;rotation=0;fontFamily=Times New Roman;" parent="1" vertex="1">
          <mxGeometry x="358.75" y="635" width="10" height="22.5" as="geometry" />
        </mxCell>
        <mxCell id="L22xxLEYPAmq4ZMWk_22-587" value="&lt;b&gt;&lt;font style=&quot;font-size: 10px;&quot;&gt;Referral&lt;/font&gt;&lt;/b&gt;" style="text;html=1;align=center;verticalAlign=middle;whiteSpace=wrap;rounded=0;fontFamily=Times New Roman;" parent="1" vertex="1">
          <mxGeometry x="318.75" y="631.25" width="40" height="27.5" as="geometry" />
        </mxCell>
        <mxCell id="L22xxLEYPAmq4ZMWk_22-588" value="" style="shape=curlyBracket;whiteSpace=wrap;html=1;rounded=1;labelPosition=left;verticalLabelPosition=middle;align=right;verticalAlign=middle;rotation=0;fontFamily=Times New Roman;direction=west;" parent="1" vertex="1">
          <mxGeometry x="515.75" y="613.5" width="10" height="62.5" as="geometry" />
        </mxCell>
        <mxCell id="L22xxLEYPAmq4ZMWk_22-589" value="&lt;b&gt;&lt;font style=&quot;font-size: 10px;&quot;&gt;ECJ&lt;/font&gt;&lt;/b&gt;" style="text;html=1;align=center;verticalAlign=middle;whiteSpace=wrap;rounded=0;fontFamily=Times New Roman;" parent="1" vertex="1">
          <mxGeometry x="525.75" y="634.75" width="30" height="20" as="geometry" />
        </mxCell>
        <mxCell id="L22xxLEYPAmq4ZMWk_22-590" value="&lt;font style=&quot;font-size: 6px;&quot;&gt;YES&lt;/font&gt;" style="text;html=1;align=center;verticalAlign=middle;whiteSpace=wrap;rounded=0;fontFamily=Times New Roman;fontStyle=1" parent="1" vertex="1">
          <mxGeometry x="401.25" y="630" width="20" height="11.25" as="geometry" />
        </mxCell>
        <mxCell id="L22xxLEYPAmq4ZMWk_22-591" value="&lt;font style=&quot;font-size: 6px;&quot;&gt;NO&lt;/font&gt;" style="text;html=1;align=center;verticalAlign=middle;whiteSpace=wrap;rounded=0;fontFamily=Times New Roman;fontStyle=1" parent="1" vertex="1">
          <mxGeometry x="385.75" y="656.25" width="20" height="8.75" as="geometry" />
        </mxCell>
        <mxCell id="L22xxLEYPAmq4ZMWk_22-592" style="edgeStyle=orthogonalEdgeStyle;rounded=0;orthogonalLoop=1;jettySize=auto;html=1;entryX=0.5;entryY=0;entryDx=0;entryDy=0;endArrow=none;endFill=0;fontFamily=Times New Roman;" parent="1" source="L22xxLEYPAmq4ZMWk_22-593" target="L22xxLEYPAmq4ZMWk_22-594" edge="1">
          <mxGeometry relative="1" as="geometry" />
        </mxCell>
        <mxCell id="L22xxLEYPAmq4ZMWk_22-593" value="" style="rhombus;whiteSpace=wrap;html=1;fontFamily=Times New Roman;fillColor=#dae8fc;strokeColor=#6c8ebf;" parent="1" vertex="1">
          <mxGeometry x="460.25" y="690" width="25" height="25" as="geometry" />
        </mxCell>
        <mxCell id="L22xxLEYPAmq4ZMWk_22-614" style="edgeStyle=orthogonalEdgeStyle;rounded=0;orthogonalLoop=1;jettySize=auto;html=1;endArrow=none;endFill=0;fontFamily=Times New Roman;" parent="1" source="L22xxLEYPAmq4ZMWk_22-594" edge="1">
          <mxGeometry relative="1" as="geometry">
            <mxPoint x="472.7499999999999" y="778.75" as="targetPoint" />
            <Array as="points">
              <mxPoint x="473" y="788.75" />
              <mxPoint x="473" y="788.75" />
            </Array>
          </mxGeometry>
        </mxCell>
        <mxCell id="L22xxLEYPAmq4ZMWk_22-615" value="&lt;span style=&quot;color: rgba(0, 0, 0, 0); font-size: 0px; text-align: start; background-color: rgb(251, 251, 251);&quot;&gt;%3CmxGraphModel%3E%3Croot%3E%3CmxCell%20id%3D%220%22%2F%3E%3CmxCell%20id%3D%221%22%20parent%3D%220%22%2F%3E%3CmxCell%20id%3D%222%22%20value%3D%22%5C%5C%22%20style%3D%22edgeLabel%3Bhtml%3D1%3Balign%3Dcenter%3BverticalAlign%3Dmiddle%3Bresizable%3D0%3Bpoints%3D%5B%5D%3BfontFamily%3DTimes%20New%20Roman%3B%22%20vertex%3D%221%22%20connectable%3D%220%22%20parent%3D%221%22%3E%3CmxGeometry%20x%3D%22474.384281582922%22%20y%3D%22470.93782672439863%22%20as%3D%22geometry%22%2F%3E%3C%2FmxCell%3E%3C%2Froot%3E%3C%2FmxGraphModel%3E\\\\&lt;/span&gt;" style="edgeLabel;html=1;align=center;verticalAlign=middle;resizable=0;points=[];fontFamily=Times New Roman;" parent="L22xxLEYPAmq4ZMWk_22-614" vertex="1" connectable="0">
          <mxGeometry x="-0.2428" relative="1" as="geometry">
            <mxPoint as="offset" />
          </mxGeometry>
        </mxCell>
        <mxCell id="WVFoBW6a4ryBcwZJH06N-5" value="\\" style="edgeLabel;html=1;align=center;verticalAlign=middle;resizable=0;points=[];fontFamily=Times New Roman;" vertex="1" connectable="0" parent="L22xxLEYPAmq4ZMWk_22-614">
          <mxGeometry x="-0.3885" relative="1" as="geometry">
            <mxPoint y="6" as="offset" />
          </mxGeometry>
        </mxCell>
        <mxCell id="L22xxLEYPAmq4ZMWk_22-594" value="" style="rhombus;whiteSpace=wrap;html=1;fontFamily=Times New Roman;fillColor=#dae8fc;strokeColor=#6c8ebf;" parent="1" vertex="1">
          <mxGeometry x="460.25" y="734.5" width="25" height="25" as="geometry" />
        </mxCell>
        <mxCell id="L22xxLEYPAmq4ZMWk_22-595" value="" style="shape=curlyBracket;whiteSpace=wrap;html=1;rounded=1;labelPosition=left;verticalLabelPosition=middle;align=right;verticalAlign=middle;rotation=0;fontFamily=Times New Roman;direction=west;" parent="1" vertex="1">
          <mxGeometry x="568.75" y="691.25" width="10" height="22.5" as="geometry" />
        </mxCell>
        <mxCell id="L22xxLEYPAmq4ZMWk_22-596" value="&lt;font style=&quot;font-size: 10px;&quot;&gt;Keep &quot;as is&quot;&lt;/font&gt;" style="text;html=1;align=left;verticalAlign=middle;whiteSpace=wrap;rounded=0;fontFamily=Times New Roman;fontStyle=1" parent="1" vertex="1">
          <mxGeometry x="578.75" y="687.5" width="62.5" height="27.5" as="geometry" />
        </mxCell>
        <mxCell id="L22xxLEYPAmq4ZMWk_22-597" value="" style="group;fontFamily=Times New Roman;" parent="1" vertex="1" connectable="0">
          <mxGeometry x="518.75" y="694.5" width="40" height="16" as="geometry" />
        </mxCell>
        <mxCell id="L22xxLEYPAmq4ZMWk_22-598" value="END" style="shape=process;whiteSpace=wrap;html=1;backgroundOutline=1;strokeWidth=0.5;container=0;fontSize=5;fontFamily=Times New Roman;align=center;" parent="L22xxLEYPAmq4ZMWk_22-597" vertex="1">
          <mxGeometry y="0.7999999999999997" width="40" height="15.200000000000001" as="geometry" />
        </mxCell>
        <mxCell id="L22xxLEYPAmq4ZMWk_22-599" value="" style="endArrow=none;html=1;rounded=0;exitX=0;exitY=0.75;exitDx=0;exitDy=0;entryX=1;entryY=0.75;entryDx=0;entryDy=0;strokeWidth=0.5;fontSize=5;fontFamily=Times New Roman;" parent="L22xxLEYPAmq4ZMWk_22-597" source="L22xxLEYPAmq4ZMWk_22-598" target="L22xxLEYPAmq4ZMWk_22-598" edge="1">
          <mxGeometry width="50" height="50" relative="1" as="geometry">
            <mxPoint x="10" y="3.366666666666651" as="sourcePoint" />
            <mxPoint x="16.25" y="-1.2999999999999998" as="targetPoint" />
          </mxGeometry>
        </mxCell>
        <mxCell id="L22xxLEYPAmq4ZMWk_22-600" style="edgeStyle=orthogonalEdgeStyle;rounded=0;orthogonalLoop=1;jettySize=auto;html=1;endArrow=none;endFill=0;fontFamily=Times New Roman;" parent="1" source="L22xxLEYPAmq4ZMWk_22-580" edge="1">
          <mxGeometry relative="1" as="geometry">
            <mxPoint x="472.75" y="690" as="targetPoint" />
          </mxGeometry>
        </mxCell>
        <mxCell id="L22xxLEYPAmq4ZMWk_22-601" value="" style="shape=curlyBracket;whiteSpace=wrap;html=1;rounded=1;labelPosition=left;verticalLabelPosition=middle;align=right;verticalAlign=middle;rotation=0;fontFamily=Times New Roman;direction=west;" parent="1" vertex="1">
          <mxGeometry x="568.75" y="735.75" width="10" height="22.5" as="geometry" />
        </mxCell>
        <mxCell id="L22xxLEYPAmq4ZMWk_22-602" value="" style="group;fontFamily=Times New Roman;" parent="1" vertex="1" connectable="0">
          <mxGeometry x="518.75" y="739" width="40" height="16" as="geometry" />
        </mxCell>
        <mxCell id="L22xxLEYPAmq4ZMWk_22-603" value="END" style="shape=process;whiteSpace=wrap;html=1;backgroundOutline=1;strokeWidth=0.5;container=0;fontSize=5;fontFamily=Times New Roman;align=center;" parent="L22xxLEYPAmq4ZMWk_22-602" vertex="1">
          <mxGeometry y="0.7999999999999997" width="40" height="15.200000000000001" as="geometry" />
        </mxCell>
        <mxCell id="L22xxLEYPAmq4ZMWk_22-604" value="" style="endArrow=none;html=1;rounded=0;exitX=0;exitY=0.75;exitDx=0;exitDy=0;entryX=1;entryY=0.75;entryDx=0;entryDy=0;strokeWidth=0.5;fontSize=5;fontFamily=Times New Roman;" parent="L22xxLEYPAmq4ZMWk_22-602" source="L22xxLEYPAmq4ZMWk_22-603" target="L22xxLEYPAmq4ZMWk_22-603" edge="1">
          <mxGeometry width="50" height="50" relative="1" as="geometry">
            <mxPoint x="10" y="3.366666666666651" as="sourcePoint" />
            <mxPoint x="16.25" y="-1.2999999999999998" as="targetPoint" />
          </mxGeometry>
        </mxCell>
        <mxCell id="L22xxLEYPAmq4ZMWk_22-605" value="&lt;font style=&quot;font-size: 10px;&quot;&gt;Answers Original &lt;br&gt;Claim formulation OJ&lt;/font&gt;" style="text;html=1;align=left;verticalAlign=middle;whiteSpace=wrap;rounded=0;fontFamily=Times New Roman;fontStyle=1" parent="1" vertex="1">
          <mxGeometry x="578.75" y="730.75" width="102.5" height="27.5" as="geometry" />
        </mxCell>
        <mxCell id="L22xxLEYPAmq4ZMWk_22-606" style="edgeStyle=orthogonalEdgeStyle;rounded=0;orthogonalLoop=1;jettySize=auto;html=1;entryX=1;entryY=0.5;entryDx=0;entryDy=0;endArrow=none;endFill=0;exitX=-0.001;exitY=0.438;exitDx=0;exitDy=0;exitPerimeter=0;fontFamily=Times New Roman;" parent="1" source="L22xxLEYPAmq4ZMWk_22-598" edge="1">
          <mxGeometry relative="1" as="geometry">
            <mxPoint x="506.25" y="702.6992248062015" as="sourcePoint" />
            <mxPoint x="485.25" y="702.3" as="targetPoint" />
          </mxGeometry>
        </mxCell>
        <mxCell id="L22xxLEYPAmq4ZMWk_22-607" value="\\" style="edgeLabel;html=1;align=center;verticalAlign=middle;resizable=0;points=[];fontFamily=Times New Roman;" parent="L22xxLEYPAmq4ZMWk_22-606" vertex="1" connectable="0">
          <mxGeometry x="0.1744" relative="1" as="geometry">
            <mxPoint as="offset" />
          </mxGeometry>
        </mxCell>
        <mxCell id="L22xxLEYPAmq4ZMWk_22-608" style="edgeStyle=orthogonalEdgeStyle;rounded=0;orthogonalLoop=1;jettySize=auto;html=1;endArrow=none;endFill=0;exitX=1;exitY=0.5;exitDx=0;exitDy=0;entryX=0.003;entryY=0.472;entryDx=0;entryDy=0;entryPerimeter=0;fontFamily=Times New Roman;" parent="1" source="L22xxLEYPAmq4ZMWk_22-594" target="L22xxLEYPAmq4ZMWk_22-603" edge="1">
          <mxGeometry relative="1" as="geometry">
            <mxPoint x="509.25" y="747.26" as="targetPoint" />
            <mxPoint x="495.75" y="747.26" as="sourcePoint" />
            <Array as="points">
              <mxPoint x="518.75" y="747" />
            </Array>
          </mxGeometry>
        </mxCell>
        <mxCell id="L22xxLEYPAmq4ZMWk_22-610" value="&lt;font style=&quot;font-size: 6px;&quot;&gt;YES&lt;/font&gt;" style="text;html=1;align=center;verticalAlign=middle;whiteSpace=wrap;rounded=0;fontFamily=Times New Roman;fontStyle=1" parent="1" vertex="1">
          <mxGeometry x="470" y="715" width="20" height="11.25" as="geometry" />
        </mxCell>
        <mxCell id="L22xxLEYPAmq4ZMWk_22-612" value="&lt;font style=&quot;font-size: 6px;&quot;&gt;NO&lt;/font&gt;" style="text;html=1;align=center;verticalAlign=middle;whiteSpace=wrap;rounded=0;fontFamily=Times New Roman;fontStyle=1" parent="1" vertex="1">
          <mxGeometry x="478.75" y="691.25" width="20" height="8.75" as="geometry" />
        </mxCell>
        <mxCell id="L22xxLEYPAmq4ZMWk_22-613" value="&lt;font style=&quot;font-size: 6px;&quot;&gt;NO&lt;/font&gt;" style="text;html=1;align=center;verticalAlign=middle;whiteSpace=wrap;rounded=0;fontFamily=Times New Roman;fontStyle=1" parent="1" vertex="1">
          <mxGeometry x="482.25" y="736.75" width="20" height="8.75" as="geometry" />
        </mxCell>
        <mxCell id="WVFoBW6a4ryBcwZJH06N-1" value="&lt;font style=&quot;font-size: 6px;&quot;&gt;YES&lt;/font&gt;" style="text;html=1;align=center;verticalAlign=middle;whiteSpace=wrap;rounded=0;fontFamily=Times New Roman;fontStyle=1" vertex="1" parent="1">
          <mxGeometry x="471" y="758.25" width="20" height="11.25" as="geometry" />
        </mxCell>
        <mxCell id="WVFoBW6a4ryBcwZJH06N-8" value="" style="shape=curlyBracket;whiteSpace=wrap;html=1;rounded=1;labelPosition=left;verticalLabelPosition=middle;align=right;verticalAlign=middle;rotation=0;fontFamily=Times New Roman;" vertex="1" parent="1">
          <mxGeometry x="659" y="1050" width="10" height="50" as="geometry" />
        </mxCell>
        <mxCell id="WVFoBW6a4ryBcwZJH06N-9" value="" style="rounded=0;orthogonalLoop=1;jettySize=auto;html=1;endArrow=none;endFill=0;fontFamily=Times New Roman;" edge="1" parent="1" source="WVFoBW6a4ryBcwZJH06N-12" target="WVFoBW6a4ryBcwZJH06N-16">
          <mxGeometry relative="1" as="geometry" />
        </mxCell>
        <mxCell id="WVFoBW6a4ryBcwZJH06N-10" style="edgeStyle=orthogonalEdgeStyle;rounded=0;orthogonalLoop=1;jettySize=auto;html=1;endArrow=none;endFill=0;fontFamily=Times New Roman;" edge="1" parent="1" source="WVFoBW6a4ryBcwZJH06N-12">
          <mxGeometry relative="1" as="geometry">
            <mxPoint x="700" y="1177.5" as="targetPoint" />
          </mxGeometry>
        </mxCell>
        <mxCell id="WVFoBW6a4ryBcwZJH06N-12" value="" style="rhombus;whiteSpace=wrap;html=1;fontFamily=Times New Roman;fillColor=#f5f5f5;fontColor=#333333;strokeColor=#666666;" vertex="1" parent="1">
          <mxGeometry x="687.5" y="1122.5" width="25" height="25" as="geometry" />
        </mxCell>
        <mxCell id="WVFoBW6a4ryBcwZJH06N-13" style="edgeStyle=orthogonalEdgeStyle;rounded=0;orthogonalLoop=1;jettySize=auto;html=1;entryX=0.5;entryY=0;entryDx=0;entryDy=0;endArrow=none;endFill=0;fontFamily=Times New Roman;" edge="1" parent="1" source="WVFoBW6a4ryBcwZJH06N-14" target="WVFoBW6a4ryBcwZJH06N-12">
          <mxGeometry relative="1" as="geometry" />
        </mxCell>
        <mxCell id="WVFoBW6a4ryBcwZJH06N-14" value="" style="whiteSpace=wrap;html=1;aspect=fixed;fillColor=#f5f5f5;fontColor=#333333;strokeColor=#666666;fontFamily=Times New Roman;" vertex="1" parent="1">
          <mxGeometry x="680" y="1057.5" width="40" height="40" as="geometry" />
        </mxCell>
        <mxCell id="WVFoBW6a4ryBcwZJH06N-15" value="" style="group;fontFamily=Times New Roman;" vertex="1" connectable="0" parent="1">
          <mxGeometry x="760" y="1109.75" width="50" height="50" as="geometry" />
        </mxCell>
        <mxCell id="WVFoBW6a4ryBcwZJH06N-16" value="" style="whiteSpace=wrap;html=1;aspect=fixed;fillColor=#dae8fc;strokeColor=#6c8ebf;fontFamily=Times New Roman;" vertex="1" parent="WVFoBW6a4ryBcwZJH06N-15">
          <mxGeometry width="48" height="48" as="geometry" />
        </mxCell>
        <mxCell id="WVFoBW6a4ryBcwZJH06N-17" value="" style="endArrow=none;html=1;rounded=0;entryX=1.001;entryY=0.164;entryDx=0;entryDy=0;entryPerimeter=0;exitX=0;exitY=0.158;exitDx=0;exitDy=0;exitPerimeter=0;fillColor=#b1ddf0;strokeColor=#10739e;fontFamily=Times New Roman;" edge="1" parent="WVFoBW6a4ryBcwZJH06N-15" source="WVFoBW6a4ryBcwZJH06N-16" target="WVFoBW6a4ryBcwZJH06N-16">
          <mxGeometry width="50" height="50" relative="1" as="geometry">
            <mxPoint x="-110.37777777777774" y="22.22222222222222" as="sourcePoint" />
            <mxPoint x="0.7333333333333611" y="-77.77777777777777" as="targetPoint" />
          </mxGeometry>
        </mxCell>
        <mxCell id="WVFoBW6a4ryBcwZJH06N-18" value="&lt;b&gt;&lt;font style=&quot;font-size: 10px;&quot;&gt;MS Court&lt;/font&gt;&lt;/b&gt;" style="text;html=1;align=center;verticalAlign=middle;whiteSpace=wrap;rounded=0;fontFamily=Times New Roman;" vertex="1" parent="1">
          <mxGeometry x="610" y="1062" width="50" height="20" as="geometry" />
        </mxCell>
        <mxCell id="WVFoBW6a4ryBcwZJH06N-19" value="" style="group;fontFamily=Times New Roman;" vertex="1" connectable="0" parent="1">
          <mxGeometry x="680" y="1177.5" width="40" height="16" as="geometry" />
        </mxCell>
        <mxCell id="WVFoBW6a4ryBcwZJH06N-20" value="END" style="shape=process;whiteSpace=wrap;html=1;backgroundOutline=1;strokeWidth=0.5;container=0;fontSize=5;fontFamily=Times New Roman;align=center;" vertex="1" parent="WVFoBW6a4ryBcwZJH06N-19">
          <mxGeometry y="0.7999999999999997" width="40" height="15.200000000000001" as="geometry" />
        </mxCell>
        <mxCell id="WVFoBW6a4ryBcwZJH06N-21" value="" style="endArrow=none;html=1;rounded=0;exitX=0;exitY=0.75;exitDx=0;exitDy=0;entryX=1;entryY=0.75;entryDx=0;entryDy=0;strokeWidth=0.5;fontSize=5;fontFamily=Times New Roman;" edge="1" parent="WVFoBW6a4ryBcwZJH06N-19" source="WVFoBW6a4ryBcwZJH06N-20" target="WVFoBW6a4ryBcwZJH06N-20">
          <mxGeometry width="50" height="50" relative="1" as="geometry">
            <mxPoint x="10" y="3.366666666666651" as="sourcePoint" />
            <mxPoint x="16.25" y="-1.2999999999999998" as="targetPoint" />
          </mxGeometry>
        </mxCell>
        <mxCell id="WVFoBW6a4ryBcwZJH06N-22" value="" style="shape=curlyBracket;whiteSpace=wrap;html=1;rounded=1;labelPosition=left;verticalLabelPosition=middle;align=right;verticalAlign=middle;rotation=0;fontFamily=Times New Roman;" vertex="1" parent="1">
          <mxGeometry x="670" y="1125" width="10" height="22.5" as="geometry" />
        </mxCell>
        <mxCell id="WVFoBW6a4ryBcwZJH06N-23" value="&lt;b&gt;&lt;font style=&quot;font-size: 10px;&quot;&gt;Referral&lt;/font&gt;&lt;/b&gt;" style="text;html=1;align=center;verticalAlign=middle;whiteSpace=wrap;rounded=0;fontFamily=Times New Roman;" vertex="1" parent="1">
          <mxGeometry x="630" y="1121.25" width="40" height="27.5" as="geometry" />
        </mxCell>
        <mxCell id="WVFoBW6a4ryBcwZJH06N-24" value="" style="shape=curlyBracket;whiteSpace=wrap;html=1;rounded=1;labelPosition=left;verticalLabelPosition=middle;align=right;verticalAlign=middle;rotation=0;fontFamily=Times New Roman;direction=west;" vertex="1" parent="1">
          <mxGeometry x="827" y="1103.5" width="10" height="62.5" as="geometry" />
        </mxCell>
        <mxCell id="WVFoBW6a4ryBcwZJH06N-25" value="&lt;b&gt;&lt;font style=&quot;font-size: 10px;&quot;&gt;ECJ&lt;/font&gt;&lt;/b&gt;" style="text;html=1;align=center;verticalAlign=middle;whiteSpace=wrap;rounded=0;fontFamily=Times New Roman;" vertex="1" parent="1">
          <mxGeometry x="837" y="1124.75" width="30" height="20" as="geometry" />
        </mxCell>
        <mxCell id="WVFoBW6a4ryBcwZJH06N-26" value="&lt;font style=&quot;font-size: 6px;&quot;&gt;YES&lt;/font&gt;" style="text;html=1;align=center;verticalAlign=middle;whiteSpace=wrap;rounded=0;fontFamily=Times New Roman;fontStyle=1" vertex="1" parent="1">
          <mxGeometry x="712.5" y="1120" width="20" height="11.25" as="geometry" />
        </mxCell>
        <mxCell id="WVFoBW6a4ryBcwZJH06N-27" value="&lt;font style=&quot;font-size: 6px;&quot;&gt;NO&lt;/font&gt;" style="text;html=1;align=center;verticalAlign=middle;whiteSpace=wrap;rounded=0;fontFamily=Times New Roman;fontStyle=1" vertex="1" parent="1">
          <mxGeometry x="697" y="1146.25" width="20" height="8.75" as="geometry" />
        </mxCell>
        <mxCell id="WVFoBW6a4ryBcwZJH06N-28" value="&lt;h5&gt;Full Process&lt;/h5&gt;" style="text;strokeColor=none;fillColor=none;html=1;fontSize=24;fontStyle=1;verticalAlign=middle;align=center;fontFamily=Times New Roman;" vertex="1" parent="1">
          <mxGeometry x="732.5" y="1000" width="100" height="40" as="geometry" />
        </mxCell>
        <mxCell id="WVFoBW6a4ryBcwZJH06N-29" style="edgeStyle=orthogonalEdgeStyle;rounded=0;orthogonalLoop=1;jettySize=auto;html=1;entryX=0.5;entryY=0;entryDx=0;entryDy=0;endArrow=none;endFill=0;fontFamily=Times New Roman;" edge="1" parent="1" source="WVFoBW6a4ryBcwZJH06N-30" target="WVFoBW6a4ryBcwZJH06N-31">
          <mxGeometry relative="1" as="geometry" />
        </mxCell>
        <mxCell id="WVFoBW6a4ryBcwZJH06N-30" value="" style="rhombus;whiteSpace=wrap;html=1;fontFamily=Times New Roman;fillColor=#dae8fc;strokeColor=#6c8ebf;" vertex="1" parent="1">
          <mxGeometry x="771.5" y="1180" width="25" height="25" as="geometry" />
        </mxCell>
        <mxCell id="WVFoBW6a4ryBcwZJH06N-31" value="" style="rhombus;whiteSpace=wrap;html=1;fontFamily=Times New Roman;fillColor=#dae8fc;strokeColor=#6c8ebf;" vertex="1" parent="1">
          <mxGeometry x="771.5" y="1224.5" width="25" height="25" as="geometry" />
        </mxCell>
        <mxCell id="WVFoBW6a4ryBcwZJH06N-32" value="" style="shape=curlyBracket;whiteSpace=wrap;html=1;rounded=1;labelPosition=left;verticalLabelPosition=middle;align=right;verticalAlign=middle;rotation=0;fontFamily=Times New Roman;direction=west;" vertex="1" parent="1">
          <mxGeometry x="880" y="1181.25" width="10" height="22.5" as="geometry" />
        </mxCell>
        <mxCell id="WVFoBW6a4ryBcwZJH06N-33" value="&lt;font style=&quot;font-size: 10px;&quot;&gt;Keep &quot;as is&quot;?&lt;/font&gt;" style="text;html=1;align=left;verticalAlign=middle;whiteSpace=wrap;rounded=0;fontFamily=Times New Roman;fontStyle=1" vertex="1" parent="1">
          <mxGeometry x="890" y="1177.5" width="62.5" height="27.5" as="geometry" />
        </mxCell>
        <mxCell id="WVFoBW6a4ryBcwZJH06N-34" value="" style="group;fontFamily=Times New Roman;" vertex="1" connectable="0" parent="1">
          <mxGeometry x="830" y="1184.5" width="40" height="16" as="geometry" />
        </mxCell>
        <mxCell id="WVFoBW6a4ryBcwZJH06N-35" value="END" style="shape=process;whiteSpace=wrap;html=1;backgroundOutline=1;strokeWidth=0.5;container=0;fontSize=5;fontFamily=Times New Roman;align=center;" vertex="1" parent="WVFoBW6a4ryBcwZJH06N-34">
          <mxGeometry y="0.7999999999999997" width="40" height="15.200000000000001" as="geometry" />
        </mxCell>
        <mxCell id="WVFoBW6a4ryBcwZJH06N-36" value="" style="endArrow=none;html=1;rounded=0;exitX=0;exitY=0.75;exitDx=0;exitDy=0;entryX=1;entryY=0.75;entryDx=0;entryDy=0;strokeWidth=0.5;fontSize=5;fontFamily=Times New Roman;" edge="1" parent="WVFoBW6a4ryBcwZJH06N-34" source="WVFoBW6a4ryBcwZJH06N-35" target="WVFoBW6a4ryBcwZJH06N-35">
          <mxGeometry width="50" height="50" relative="1" as="geometry">
            <mxPoint x="10" y="3.366666666666651" as="sourcePoint" />
            <mxPoint x="16.25" y="-1.2999999999999998" as="targetPoint" />
          </mxGeometry>
        </mxCell>
        <mxCell id="WVFoBW6a4ryBcwZJH06N-37" style="edgeStyle=orthogonalEdgeStyle;rounded=0;orthogonalLoop=1;jettySize=auto;html=1;endArrow=none;endFill=0;fontFamily=Times New Roman;" edge="1" parent="1" source="WVFoBW6a4ryBcwZJH06N-16">
          <mxGeometry relative="1" as="geometry">
            <mxPoint x="784" y="1180" as="targetPoint" />
          </mxGeometry>
        </mxCell>
        <mxCell id="WVFoBW6a4ryBcwZJH06N-38" value="" style="shape=curlyBracket;whiteSpace=wrap;html=1;rounded=1;labelPosition=left;verticalLabelPosition=middle;align=right;verticalAlign=middle;rotation=0;fontFamily=Times New Roman;direction=west;" vertex="1" parent="1">
          <mxGeometry x="880" y="1225.75" width="10" height="22.5" as="geometry" />
        </mxCell>
        <mxCell id="WVFoBW6a4ryBcwZJH06N-39" value="" style="group;fontFamily=Times New Roman;" vertex="1" connectable="0" parent="1">
          <mxGeometry x="830" y="1229" width="40" height="16" as="geometry" />
        </mxCell>
        <mxCell id="WVFoBW6a4ryBcwZJH06N-40" value="END" style="shape=process;whiteSpace=wrap;html=1;backgroundOutline=1;strokeWidth=0.5;container=0;fontSize=5;fontFamily=Times New Roman;align=center;" vertex="1" parent="WVFoBW6a4ryBcwZJH06N-39">
          <mxGeometry y="0.7999999999999997" width="40" height="15.200000000000001" as="geometry" />
        </mxCell>
        <mxCell id="WVFoBW6a4ryBcwZJH06N-41" value="" style="endArrow=none;html=1;rounded=0;exitX=0;exitY=0.75;exitDx=0;exitDy=0;entryX=1;entryY=0.75;entryDx=0;entryDy=0;strokeWidth=0.5;fontSize=5;fontFamily=Times New Roman;" edge="1" parent="WVFoBW6a4ryBcwZJH06N-39" source="WVFoBW6a4ryBcwZJH06N-40" target="WVFoBW6a4ryBcwZJH06N-40">
          <mxGeometry width="50" height="50" relative="1" as="geometry">
            <mxPoint x="10" y="3.366666666666651" as="sourcePoint" />
            <mxPoint x="16.25" y="-1.2999999999999998" as="targetPoint" />
          </mxGeometry>
        </mxCell>
        <mxCell id="WVFoBW6a4ryBcwZJH06N-42" value="&lt;font style=&quot;font-size: 10px;&quot;&gt;Answers Original &lt;br&gt;Claim formulation OJ?&lt;/font&gt;" style="text;html=1;align=left;verticalAlign=middle;whiteSpace=wrap;rounded=0;fontFamily=Times New Roman;fontStyle=1" vertex="1" parent="1">
          <mxGeometry x="890" y="1220.75" width="102.5" height="27.5" as="geometry" />
        </mxCell>
        <mxCell id="WVFoBW6a4ryBcwZJH06N-43" style="edgeStyle=orthogonalEdgeStyle;rounded=0;orthogonalLoop=1;jettySize=auto;html=1;entryX=0.5;entryY=0;entryDx=0;entryDy=0;endArrow=none;endFill=0;fontFamily=Times New Roman;" edge="1" parent="1" source="WVFoBW6a4ryBcwZJH06N-44" target="WVFoBW6a4ryBcwZJH06N-56">
          <mxGeometry relative="1" as="geometry" />
        </mxCell>
        <mxCell id="WVFoBW6a4ryBcwZJH06N-44" value="" style="rhombus;whiteSpace=wrap;html=1;fontFamily=Times New Roman;fillColor=#dae8fc;strokeColor=#6c8ebf;" vertex="1" parent="1">
          <mxGeometry x="771.5" y="1270" width="25" height="25" as="geometry" />
        </mxCell>
        <mxCell id="WVFoBW6a4ryBcwZJH06N-45" value="" style="group;fontFamily=Times New Roman;" vertex="1" connectable="0" parent="1">
          <mxGeometry x="830" y="1274.5" width="40" height="16" as="geometry" />
        </mxCell>
        <mxCell id="WVFoBW6a4ryBcwZJH06N-46" value="END" style="shape=process;whiteSpace=wrap;html=1;backgroundOutline=1;strokeWidth=0.5;container=0;fontSize=5;fontFamily=Times New Roman;align=center;" vertex="1" parent="WVFoBW6a4ryBcwZJH06N-45">
          <mxGeometry y="0.7999999999999997" width="40" height="15.200000000000001" as="geometry" />
        </mxCell>
        <mxCell id="WVFoBW6a4ryBcwZJH06N-47" value="" style="endArrow=none;html=1;rounded=0;exitX=0;exitY=0.75;exitDx=0;exitDy=0;entryX=1;entryY=0.75;entryDx=0;entryDy=0;strokeWidth=0.5;fontSize=5;fontFamily=Times New Roman;" edge="1" parent="WVFoBW6a4ryBcwZJH06N-45" source="WVFoBW6a4ryBcwZJH06N-46" target="WVFoBW6a4ryBcwZJH06N-46">
          <mxGeometry width="50" height="50" relative="1" as="geometry">
            <mxPoint x="10" y="3.366666666666651" as="sourcePoint" />
            <mxPoint x="16.25" y="-1.2999999999999998" as="targetPoint" />
          </mxGeometry>
        </mxCell>
        <mxCell id="WVFoBW6a4ryBcwZJH06N-48" style="edgeStyle=orthogonalEdgeStyle;rounded=0;orthogonalLoop=1;jettySize=auto;html=1;entryX=-0.007;entryY=0.459;entryDx=0;entryDy=0;entryPerimeter=0;targetPerimeterSpacing=-1;endArrow=none;endFill=0;exitX=1;exitY=0.5;exitDx=0;exitDy=0;fontFamily=Times New Roman;" edge="1" parent="WVFoBW6a4ryBcwZJH06N-45" source="WVFoBW6a4ryBcwZJH06N-44">
          <mxGeometry relative="1" as="geometry">
            <mxPoint x="-20.72160771704182" y="8.111607717041807" as="sourcePoint" />
            <mxPoint x="1.1368683772161603e-13" y="7.886799999999994" as="targetPoint" />
          </mxGeometry>
        </mxCell>
        <mxCell id="WVFoBW6a4ryBcwZJH06N-50" style="edgeStyle=orthogonalEdgeStyle;rounded=0;orthogonalLoop=1;jettySize=auto;html=1;entryX=0.463;entryY=-0.054;entryDx=0;entryDy=0;entryPerimeter=0;endArrow=none;endFill=0;fontFamily=Times New Roman;" edge="1" parent="1" source="WVFoBW6a4ryBcwZJH06N-31" target="WVFoBW6a4ryBcwZJH06N-44">
          <mxGeometry relative="1" as="geometry" />
        </mxCell>
        <mxCell id="WVFoBW6a4ryBcwZJH06N-51" value="" style="shape=curlyBracket;whiteSpace=wrap;html=1;rounded=1;labelPosition=left;verticalLabelPosition=middle;align=right;verticalAlign=middle;rotation=0;fontFamily=Times New Roman;direction=west;" vertex="1" parent="1">
          <mxGeometry x="879.5" y="1272.5" width="10" height="22.5" as="geometry" />
        </mxCell>
        <mxCell id="WVFoBW6a4ryBcwZJH06N-52" value="&lt;span style=&quot;font-size: 10px;&quot;&gt;Previously Raised?&lt;/span&gt;" style="text;html=1;align=left;verticalAlign=middle;whiteSpace=wrap;rounded=0;fontFamily=Times New Roman;fontStyle=1" vertex="1" parent="1">
          <mxGeometry x="889.5" y="1267.5" width="102.5" height="27.5" as="geometry" />
        </mxCell>
        <mxCell id="WVFoBW6a4ryBcwZJH06N-53" style="edgeStyle=orthogonalEdgeStyle;rounded=0;orthogonalLoop=1;jettySize=auto;html=1;entryX=1;entryY=0.5;entryDx=0;entryDy=0;endArrow=none;endFill=0;exitX=-0.001;exitY=0.438;exitDx=0;exitDy=0;exitPerimeter=0;fontFamily=Times New Roman;" edge="1" parent="1" source="WVFoBW6a4ryBcwZJH06N-35">
          <mxGeometry relative="1" as="geometry">
            <mxPoint x="817.5" y="1192.6992248062015" as="sourcePoint" />
            <mxPoint x="796.5" y="1192.3" as="targetPoint" />
          </mxGeometry>
        </mxCell>
        <mxCell id="WVFoBW6a4ryBcwZJH06N-55" value="" style="group;fontFamily=Times New Roman;" vertex="1" connectable="0" parent="1">
          <mxGeometry x="764" y="1320" width="40" height="16" as="geometry" />
        </mxCell>
        <mxCell id="WVFoBW6a4ryBcwZJH06N-56" value="END" style="shape=process;whiteSpace=wrap;html=1;backgroundOutline=1;strokeWidth=0.5;container=0;fontSize=5;fontFamily=Times New Roman;align=center;" vertex="1" parent="WVFoBW6a4ryBcwZJH06N-55">
          <mxGeometry y="0.7999999999999997" width="40" height="15.200000000000001" as="geometry" />
        </mxCell>
        <mxCell id="WVFoBW6a4ryBcwZJH06N-57" value="" style="endArrow=none;html=1;rounded=0;exitX=0;exitY=0.75;exitDx=0;exitDy=0;entryX=1;entryY=0.75;entryDx=0;entryDy=0;strokeWidth=0.5;fontSize=5;fontFamily=Times New Roman;" edge="1" parent="WVFoBW6a4ryBcwZJH06N-55" source="WVFoBW6a4ryBcwZJH06N-56" target="WVFoBW6a4ryBcwZJH06N-56">
          <mxGeometry width="50" height="50" relative="1" as="geometry">
            <mxPoint x="10" y="3.366666666666651" as="sourcePoint" />
            <mxPoint x="16.25" y="-1.2999999999999998" as="targetPoint" />
          </mxGeometry>
        </mxCell>
        <mxCell id="WVFoBW6a4ryBcwZJH06N-58" style="edgeStyle=orthogonalEdgeStyle;rounded=0;orthogonalLoop=1;jettySize=auto;html=1;endArrow=none;endFill=0;exitX=1;exitY=0.5;exitDx=0;exitDy=0;entryX=0.003;entryY=0.472;entryDx=0;entryDy=0;entryPerimeter=0;fontFamily=Times New Roman;" edge="1" parent="1" source="WVFoBW6a4ryBcwZJH06N-31" target="WVFoBW6a4ryBcwZJH06N-40">
          <mxGeometry relative="1" as="geometry">
            <mxPoint x="820.5" y="1237.26" as="targetPoint" />
            <mxPoint x="807" y="1237.26" as="sourcePoint" />
            <Array as="points">
              <mxPoint x="830" y="1237" />
            </Array>
          </mxGeometry>
        </mxCell>
        <mxCell id="WVFoBW6a4ryBcwZJH06N-60" value="&lt;font style=&quot;font-size: 6px;&quot;&gt;YES&lt;/font&gt;" style="text;html=1;align=center;verticalAlign=middle;whiteSpace=wrap;rounded=0;fontFamily=Times New Roman;fontStyle=1" vertex="1" parent="1">
          <mxGeometry x="781" y="1209.5" width="20" height="11.25" as="geometry" />
        </mxCell>
        <mxCell id="WVFoBW6a4ryBcwZJH06N-61" value="&lt;font style=&quot;font-size: 6px;&quot;&gt;YES&lt;/font&gt;" style="text;html=1;align=center;verticalAlign=middle;whiteSpace=wrap;rounded=0;fontFamily=Times New Roman;fontStyle=1" vertex="1" parent="1">
          <mxGeometry x="781" y="1251.5" width="20" height="11.25" as="geometry" />
        </mxCell>
        <mxCell id="WVFoBW6a4ryBcwZJH06N-62" value="&lt;font style=&quot;font-size: 6px;&quot;&gt;YES&lt;/font&gt;" style="text;html=1;align=center;verticalAlign=middle;whiteSpace=wrap;rounded=0;fontFamily=Times New Roman;fontStyle=1" vertex="1" parent="1">
          <mxGeometry x="780" y="1300" width="20" height="11.25" as="geometry" />
        </mxCell>
        <mxCell id="WVFoBW6a4ryBcwZJH06N-64" value="&lt;font style=&quot;font-size: 6px;&quot;&gt;NO&lt;/font&gt;" style="text;html=1;align=center;verticalAlign=middle;whiteSpace=wrap;rounded=0;fontFamily=Times New Roman;fontStyle=1" vertex="1" parent="1">
          <mxGeometry x="790" y="1181.25" width="20" height="8.75" as="geometry" />
        </mxCell>
        <mxCell id="WVFoBW6a4ryBcwZJH06N-65" value="&lt;font style=&quot;font-size: 6px;&quot;&gt;NO&lt;/font&gt;" style="text;html=1;align=center;verticalAlign=middle;whiteSpace=wrap;rounded=0;fontFamily=Times New Roman;fontStyle=1" vertex="1" parent="1">
          <mxGeometry x="791.5" y="1226.75" width="20" height="8.75" as="geometry" />
        </mxCell>
        <mxCell id="WVFoBW6a4ryBcwZJH06N-66" value="&lt;font style=&quot;font-size: 6px;&quot;&gt;NO&lt;/font&gt;" style="text;html=1;align=center;verticalAlign=middle;whiteSpace=wrap;rounded=0;fontFamily=Times New Roman;fontStyle=1" vertex="1" parent="1">
          <mxGeometry x="791.5" y="1272.5" width="20" height="8.75" as="geometry" />
        </mxCell>
        <mxCell id="QAgmBR44Fgi_TN2DcMOS-2" value="&lt;p style=&quot;line-height: 80%;&quot;&gt;&lt;font face=&quot;Times New Roman&quot; style=&quot;font-size: 8px;&quot;&gt;No Agency&lt;/font&gt;&lt;/p&gt;" style="rounded=1;whiteSpace=wrap;html=1;fontFamily=Times New Roman;fillColor=#f5f5f5;strokeColor=#666666;fontColor=#333333;" vertex="1" parent="1">
          <mxGeometry x="106.16" y="429.44" width="51.19" height="20.56" as="geometry" />
        </mxCell>
      </root>
    </mxGraphModel>
  </diagram>
  <diagram id="xNhsaXbwfZrT9TzVBFCL" name="Page-4">
    <mxGraphModel dx="1431" dy="708" grid="1" gridSize="10" guides="1" tooltips="1" connect="1" arrows="1" fold="1" page="1" pageScale="1" pageWidth="827" pageHeight="1169" math="0" shadow="0">
      <root>
        <mxCell id="0" />
        <mxCell id="1" parent="0" />
        <mxCell id="APgzwrlSdgfJDYfN1Lk7-1" value="" style="shape=curlyBracket;whiteSpace=wrap;html=1;rounded=1;labelPosition=left;verticalLabelPosition=middle;align=right;verticalAlign=middle;rotation=0;fontFamily=Times New Roman;" vertex="1" parent="1">
          <mxGeometry x="659" y="1050" width="10" height="50" as="geometry" />
        </mxCell>
        <mxCell id="APgzwrlSdgfJDYfN1Lk7-2" value="" style="rounded=0;orthogonalLoop=1;jettySize=auto;html=1;endArrow=none;endFill=0;fontFamily=Times New Roman;" edge="1" parent="1" source="APgzwrlSdgfJDYfN1Lk7-4" target="APgzwrlSdgfJDYfN1Lk7-8">
          <mxGeometry relative="1" as="geometry" />
        </mxCell>
        <mxCell id="APgzwrlSdgfJDYfN1Lk7-3" style="edgeStyle=orthogonalEdgeStyle;rounded=0;orthogonalLoop=1;jettySize=auto;html=1;endArrow=none;endFill=0;fontFamily=Times New Roman;" edge="1" parent="1" source="APgzwrlSdgfJDYfN1Lk7-4">
          <mxGeometry relative="1" as="geometry">
            <mxPoint x="700" y="1177.5" as="targetPoint" />
          </mxGeometry>
        </mxCell>
        <mxCell id="APgzwrlSdgfJDYfN1Lk7-4" value="" style="rhombus;whiteSpace=wrap;html=1;fontFamily=Times New Roman;fillColor=#f5f5f5;fontColor=#333333;strokeColor=#666666;" vertex="1" parent="1">
          <mxGeometry x="687.5" y="1122.5" width="25" height="25" as="geometry" />
        </mxCell>
        <mxCell id="APgzwrlSdgfJDYfN1Lk7-5" style="edgeStyle=orthogonalEdgeStyle;rounded=0;orthogonalLoop=1;jettySize=auto;html=1;entryX=0.5;entryY=0;entryDx=0;entryDy=0;endArrow=none;endFill=0;fontFamily=Times New Roman;" edge="1" parent="1" source="APgzwrlSdgfJDYfN1Lk7-6" target="APgzwrlSdgfJDYfN1Lk7-4">
          <mxGeometry relative="1" as="geometry" />
        </mxCell>
        <mxCell id="APgzwrlSdgfJDYfN1Lk7-6" value="" style="whiteSpace=wrap;html=1;aspect=fixed;fillColor=#f5f5f5;fontColor=#333333;strokeColor=#666666;fontFamily=Times New Roman;" vertex="1" parent="1">
          <mxGeometry x="680" y="1057.5" width="40" height="40" as="geometry" />
        </mxCell>
        <mxCell id="APgzwrlSdgfJDYfN1Lk7-7" value="" style="group;fontFamily=Times New Roman;" vertex="1" connectable="0" parent="1">
          <mxGeometry x="760" y="1109.75" width="50" height="50" as="geometry" />
        </mxCell>
        <mxCell id="APgzwrlSdgfJDYfN1Lk7-8" value="" style="whiteSpace=wrap;html=1;aspect=fixed;fillColor=#dae8fc;strokeColor=#6c8ebf;fontFamily=Times New Roman;" vertex="1" parent="APgzwrlSdgfJDYfN1Lk7-7">
          <mxGeometry width="48" height="48" as="geometry" />
        </mxCell>
        <mxCell id="APgzwrlSdgfJDYfN1Lk7-9" value="" style="endArrow=none;html=1;rounded=0;entryX=1.001;entryY=0.164;entryDx=0;entryDy=0;entryPerimeter=0;exitX=0;exitY=0.158;exitDx=0;exitDy=0;exitPerimeter=0;fillColor=#b1ddf0;strokeColor=#10739e;fontFamily=Times New Roman;" edge="1" parent="APgzwrlSdgfJDYfN1Lk7-7" source="APgzwrlSdgfJDYfN1Lk7-8" target="APgzwrlSdgfJDYfN1Lk7-8">
          <mxGeometry width="50" height="50" relative="1" as="geometry">
            <mxPoint x="-110.37777777777774" y="22.22222222222222" as="sourcePoint" />
            <mxPoint x="0.7333333333333611" y="-77.77777777777777" as="targetPoint" />
          </mxGeometry>
        </mxCell>
        <mxCell id="APgzwrlSdgfJDYfN1Lk7-10" value="&lt;b&gt;&lt;font style=&quot;font-size: 10px;&quot;&gt;MS Court&lt;/font&gt;&lt;/b&gt;" style="text;html=1;align=center;verticalAlign=middle;whiteSpace=wrap;rounded=0;fontFamily=Times New Roman;" vertex="1" parent="1">
          <mxGeometry x="610" y="1062" width="50" height="20" as="geometry" />
        </mxCell>
        <mxCell id="APgzwrlSdgfJDYfN1Lk7-11" value="" style="group;fontFamily=Times New Roman;" vertex="1" connectable="0" parent="1">
          <mxGeometry x="680" y="1177.5" width="40" height="16" as="geometry" />
        </mxCell>
        <mxCell id="APgzwrlSdgfJDYfN1Lk7-12" value="END" style="shape=process;whiteSpace=wrap;html=1;backgroundOutline=1;strokeWidth=0.5;container=0;fontSize=5;fontFamily=Times New Roman;align=center;" vertex="1" parent="APgzwrlSdgfJDYfN1Lk7-11">
          <mxGeometry y="0.7999999999999997" width="40" height="15.200000000000001" as="geometry" />
        </mxCell>
        <mxCell id="APgzwrlSdgfJDYfN1Lk7-13" value="" style="endArrow=none;html=1;rounded=0;exitX=0;exitY=0.75;exitDx=0;exitDy=0;entryX=1;entryY=0.75;entryDx=0;entryDy=0;strokeWidth=0.5;fontSize=5;fontFamily=Times New Roman;" edge="1" parent="APgzwrlSdgfJDYfN1Lk7-11" source="APgzwrlSdgfJDYfN1Lk7-12" target="APgzwrlSdgfJDYfN1Lk7-12">
          <mxGeometry width="50" height="50" relative="1" as="geometry">
            <mxPoint x="10" y="3.366666666666651" as="sourcePoint" />
            <mxPoint x="16.25" y="-1.2999999999999998" as="targetPoint" />
          </mxGeometry>
        </mxCell>
        <mxCell id="APgzwrlSdgfJDYfN1Lk7-14" value="" style="shape=curlyBracket;whiteSpace=wrap;html=1;rounded=1;labelPosition=left;verticalLabelPosition=middle;align=right;verticalAlign=middle;rotation=0;fontFamily=Times New Roman;" vertex="1" parent="1">
          <mxGeometry x="670" y="1125" width="10" height="22.5" as="geometry" />
        </mxCell>
        <mxCell id="APgzwrlSdgfJDYfN1Lk7-15" value="&lt;b&gt;&lt;font style=&quot;font-size: 10px;&quot;&gt;Referral&lt;/font&gt;&lt;/b&gt;" style="text;html=1;align=center;verticalAlign=middle;whiteSpace=wrap;rounded=0;fontFamily=Times New Roman;" vertex="1" parent="1">
          <mxGeometry x="630" y="1121.25" width="40" height="27.5" as="geometry" />
        </mxCell>
        <mxCell id="APgzwrlSdgfJDYfN1Lk7-16" value="" style="shape=curlyBracket;whiteSpace=wrap;html=1;rounded=1;labelPosition=left;verticalLabelPosition=middle;align=right;verticalAlign=middle;rotation=0;fontFamily=Times New Roman;direction=west;" vertex="1" parent="1">
          <mxGeometry x="827" y="1103.5" width="10" height="62.5" as="geometry" />
        </mxCell>
        <mxCell id="APgzwrlSdgfJDYfN1Lk7-17" value="&lt;b&gt;&lt;font style=&quot;font-size: 10px;&quot;&gt;ECJ&lt;/font&gt;&lt;/b&gt;" style="text;html=1;align=center;verticalAlign=middle;whiteSpace=wrap;rounded=0;fontFamily=Times New Roman;" vertex="1" parent="1">
          <mxGeometry x="837" y="1124.75" width="30" height="20" as="geometry" />
        </mxCell>
        <mxCell id="APgzwrlSdgfJDYfN1Lk7-18" value="&lt;font style=&quot;font-size: 6px;&quot;&gt;YES&lt;/font&gt;" style="text;html=1;align=center;verticalAlign=middle;whiteSpace=wrap;rounded=0;fontFamily=Times New Roman;fontStyle=1" vertex="1" parent="1">
          <mxGeometry x="712.5" y="1120" width="20" height="11.25" as="geometry" />
        </mxCell>
        <mxCell id="APgzwrlSdgfJDYfN1Lk7-19" value="&lt;font style=&quot;font-size: 6px;&quot;&gt;NO&lt;/font&gt;" style="text;html=1;align=center;verticalAlign=middle;whiteSpace=wrap;rounded=0;fontFamily=Times New Roman;fontStyle=1" vertex="1" parent="1">
          <mxGeometry x="697" y="1146.25" width="20" height="8.75" as="geometry" />
        </mxCell>
        <mxCell id="APgzwrlSdgfJDYfN1Lk7-20" style="edgeStyle=orthogonalEdgeStyle;rounded=0;orthogonalLoop=1;jettySize=auto;html=1;entryX=0.5;entryY=0;entryDx=0;entryDy=0;endArrow=none;endFill=0;fontFamily=Times New Roman;" edge="1" parent="1" source="APgzwrlSdgfJDYfN1Lk7-21" target="APgzwrlSdgfJDYfN1Lk7-22">
          <mxGeometry relative="1" as="geometry" />
        </mxCell>
        <mxCell id="APgzwrlSdgfJDYfN1Lk7-21" value="" style="rhombus;whiteSpace=wrap;html=1;fontFamily=Times New Roman;fillColor=#dae8fc;strokeColor=#6c8ebf;" vertex="1" parent="1">
          <mxGeometry x="771.5" y="1180" width="25" height="25" as="geometry" />
        </mxCell>
        <mxCell id="APgzwrlSdgfJDYfN1Lk7-22" value="" style="rhombus;whiteSpace=wrap;html=1;fontFamily=Times New Roman;fillColor=#dae8fc;strokeColor=#6c8ebf;" vertex="1" parent="1">
          <mxGeometry x="771.5" y="1224.5" width="25" height="25" as="geometry" />
        </mxCell>
        <mxCell id="APgzwrlSdgfJDYfN1Lk7-23" value="" style="shape=curlyBracket;whiteSpace=wrap;html=1;rounded=1;labelPosition=left;verticalLabelPosition=middle;align=right;verticalAlign=middle;rotation=0;fontFamily=Times New Roman;direction=west;" vertex="1" parent="1">
          <mxGeometry x="880" y="1181.25" width="10" height="22.5" as="geometry" />
        </mxCell>
        <mxCell id="APgzwrlSdgfJDYfN1Lk7-24" value="&lt;font style=&quot;font-size: 10px;&quot;&gt;Keep &quot;as is&quot;?&lt;/font&gt;" style="text;html=1;align=left;verticalAlign=middle;whiteSpace=wrap;rounded=0;fontFamily=Times New Roman;fontStyle=1" vertex="1" parent="1">
          <mxGeometry x="890" y="1177.5" width="62.5" height="27.5" as="geometry" />
        </mxCell>
        <mxCell id="APgzwrlSdgfJDYfN1Lk7-25" value="" style="group;fontFamily=Times New Roman;" vertex="1" connectable="0" parent="1">
          <mxGeometry x="830" y="1184.5" width="40" height="16" as="geometry" />
        </mxCell>
        <mxCell id="APgzwrlSdgfJDYfN1Lk7-26" value="END" style="shape=process;whiteSpace=wrap;html=1;backgroundOutline=1;strokeWidth=0.5;container=0;fontSize=5;fontFamily=Times New Roman;align=center;" vertex="1" parent="APgzwrlSdgfJDYfN1Lk7-25">
          <mxGeometry y="0.7999999999999997" width="40" height="15.200000000000001" as="geometry" />
        </mxCell>
        <mxCell id="APgzwrlSdgfJDYfN1Lk7-27" value="" style="endArrow=none;html=1;rounded=0;exitX=0;exitY=0.75;exitDx=0;exitDy=0;entryX=1;entryY=0.75;entryDx=0;entryDy=0;strokeWidth=0.5;fontSize=5;fontFamily=Times New Roman;" edge="1" parent="APgzwrlSdgfJDYfN1Lk7-25" source="APgzwrlSdgfJDYfN1Lk7-26" target="APgzwrlSdgfJDYfN1Lk7-26">
          <mxGeometry width="50" height="50" relative="1" as="geometry">
            <mxPoint x="10" y="3.366666666666651" as="sourcePoint" />
            <mxPoint x="16.25" y="-1.2999999999999998" as="targetPoint" />
          </mxGeometry>
        </mxCell>
        <mxCell id="APgzwrlSdgfJDYfN1Lk7-28" style="edgeStyle=orthogonalEdgeStyle;rounded=0;orthogonalLoop=1;jettySize=auto;html=1;endArrow=none;endFill=0;fontFamily=Times New Roman;" edge="1" parent="1" source="APgzwrlSdgfJDYfN1Lk7-8">
          <mxGeometry relative="1" as="geometry">
            <mxPoint x="784" y="1180" as="targetPoint" />
          </mxGeometry>
        </mxCell>
        <mxCell id="APgzwrlSdgfJDYfN1Lk7-29" value="" style="shape=curlyBracket;whiteSpace=wrap;html=1;rounded=1;labelPosition=left;verticalLabelPosition=middle;align=right;verticalAlign=middle;rotation=0;fontFamily=Times New Roman;direction=west;" vertex="1" parent="1">
          <mxGeometry x="880" y="1225.75" width="10" height="22.5" as="geometry" />
        </mxCell>
        <mxCell id="APgzwrlSdgfJDYfN1Lk7-30" value="" style="group;fontFamily=Times New Roman;" vertex="1" connectable="0" parent="1">
          <mxGeometry x="830" y="1229" width="40" height="16" as="geometry" />
        </mxCell>
        <mxCell id="APgzwrlSdgfJDYfN1Lk7-31" value="END" style="shape=process;whiteSpace=wrap;html=1;backgroundOutline=1;strokeWidth=0.5;container=0;fontSize=5;fontFamily=Times New Roman;align=center;" vertex="1" parent="APgzwrlSdgfJDYfN1Lk7-30">
          <mxGeometry y="0.7999999999999997" width="40" height="15.200000000000001" as="geometry" />
        </mxCell>
        <mxCell id="APgzwrlSdgfJDYfN1Lk7-32" value="" style="endArrow=none;html=1;rounded=0;exitX=0;exitY=0.75;exitDx=0;exitDy=0;entryX=1;entryY=0.75;entryDx=0;entryDy=0;strokeWidth=0.5;fontSize=5;fontFamily=Times New Roman;" edge="1" parent="APgzwrlSdgfJDYfN1Lk7-30" source="APgzwrlSdgfJDYfN1Lk7-31" target="APgzwrlSdgfJDYfN1Lk7-31">
          <mxGeometry width="50" height="50" relative="1" as="geometry">
            <mxPoint x="10" y="3.366666666666651" as="sourcePoint" />
            <mxPoint x="16.25" y="-1.2999999999999998" as="targetPoint" />
          </mxGeometry>
        </mxCell>
        <mxCell id="APgzwrlSdgfJDYfN1Lk7-33" value="&lt;font style=&quot;font-size: 10px;&quot;&gt;Answers Original &lt;br&gt;Claim formulation OJ?&lt;/font&gt;" style="text;html=1;align=left;verticalAlign=middle;whiteSpace=wrap;rounded=0;fontFamily=Times New Roman;fontStyle=1" vertex="1" parent="1">
          <mxGeometry x="890" y="1220.75" width="102.5" height="27.5" as="geometry" />
        </mxCell>
        <mxCell id="APgzwrlSdgfJDYfN1Lk7-34" style="edgeStyle=orthogonalEdgeStyle;rounded=0;orthogonalLoop=1;jettySize=auto;html=1;entryX=0.5;entryY=0;entryDx=0;entryDy=0;endArrow=none;endFill=0;fontFamily=Times New Roman;" edge="1" parent="1" source="APgzwrlSdgfJDYfN1Lk7-35" target="APgzwrlSdgfJDYfN1Lk7-45">
          <mxGeometry relative="1" as="geometry" />
        </mxCell>
        <mxCell id="APgzwrlSdgfJDYfN1Lk7-35" value="" style="rhombus;whiteSpace=wrap;html=1;fontFamily=Times New Roman;fillColor=#dae8fc;strokeColor=#6c8ebf;" vertex="1" parent="1">
          <mxGeometry x="771.5" y="1270" width="25" height="25" as="geometry" />
        </mxCell>
        <mxCell id="APgzwrlSdgfJDYfN1Lk7-36" value="" style="group;fontFamily=Times New Roman;" vertex="1" connectable="0" parent="1">
          <mxGeometry x="830" y="1274.5" width="40" height="16" as="geometry" />
        </mxCell>
        <mxCell id="APgzwrlSdgfJDYfN1Lk7-37" value="END" style="shape=process;whiteSpace=wrap;html=1;backgroundOutline=1;strokeWidth=0.5;container=0;fontSize=5;fontFamily=Times New Roman;align=center;" vertex="1" parent="APgzwrlSdgfJDYfN1Lk7-36">
          <mxGeometry y="0.7999999999999997" width="40" height="15.200000000000001" as="geometry" />
        </mxCell>
        <mxCell id="APgzwrlSdgfJDYfN1Lk7-38" value="" style="endArrow=none;html=1;rounded=0;exitX=0;exitY=0.75;exitDx=0;exitDy=0;entryX=1;entryY=0.75;entryDx=0;entryDy=0;strokeWidth=0.5;fontSize=5;fontFamily=Times New Roman;" edge="1" parent="APgzwrlSdgfJDYfN1Lk7-36" source="APgzwrlSdgfJDYfN1Lk7-37" target="APgzwrlSdgfJDYfN1Lk7-37">
          <mxGeometry width="50" height="50" relative="1" as="geometry">
            <mxPoint x="10" y="3.366666666666651" as="sourcePoint" />
            <mxPoint x="16.25" y="-1.2999999999999998" as="targetPoint" />
          </mxGeometry>
        </mxCell>
        <mxCell id="APgzwrlSdgfJDYfN1Lk7-39" style="edgeStyle=orthogonalEdgeStyle;rounded=0;orthogonalLoop=1;jettySize=auto;html=1;entryX=-0.007;entryY=0.459;entryDx=0;entryDy=0;entryPerimeter=0;targetPerimeterSpacing=-1;endArrow=none;endFill=0;exitX=1;exitY=0.5;exitDx=0;exitDy=0;fontFamily=Times New Roman;" edge="1" parent="APgzwrlSdgfJDYfN1Lk7-36" source="APgzwrlSdgfJDYfN1Lk7-35">
          <mxGeometry relative="1" as="geometry">
            <mxPoint x="-20.72160771704182" y="8.111607717041807" as="sourcePoint" />
            <mxPoint x="1.1368683772161603e-13" y="7.886799999999994" as="targetPoint" />
          </mxGeometry>
        </mxCell>
        <mxCell id="APgzwrlSdgfJDYfN1Lk7-40" style="edgeStyle=orthogonalEdgeStyle;rounded=0;orthogonalLoop=1;jettySize=auto;html=1;entryX=0.463;entryY=-0.054;entryDx=0;entryDy=0;entryPerimeter=0;endArrow=none;endFill=0;fontFamily=Times New Roman;" edge="1" parent="1" source="APgzwrlSdgfJDYfN1Lk7-22" target="APgzwrlSdgfJDYfN1Lk7-35">
          <mxGeometry relative="1" as="geometry" />
        </mxCell>
        <mxCell id="APgzwrlSdgfJDYfN1Lk7-41" value="" style="shape=curlyBracket;whiteSpace=wrap;html=1;rounded=1;labelPosition=left;verticalLabelPosition=middle;align=right;verticalAlign=middle;rotation=0;fontFamily=Times New Roman;direction=west;" vertex="1" parent="1">
          <mxGeometry x="879.5" y="1272.5" width="10" height="22.5" as="geometry" />
        </mxCell>
        <mxCell id="APgzwrlSdgfJDYfN1Lk7-42" value="&lt;span style=&quot;font-size: 10px;&quot;&gt;Previously Raised?&lt;/span&gt;" style="text;html=1;align=left;verticalAlign=middle;whiteSpace=wrap;rounded=0;fontFamily=Times New Roman;fontStyle=1" vertex="1" parent="1">
          <mxGeometry x="889.5" y="1267.5" width="102.5" height="27.5" as="geometry" />
        </mxCell>
        <mxCell id="APgzwrlSdgfJDYfN1Lk7-43" style="edgeStyle=orthogonalEdgeStyle;rounded=0;orthogonalLoop=1;jettySize=auto;html=1;entryX=1;entryY=0.5;entryDx=0;entryDy=0;endArrow=none;endFill=0;exitX=-0.001;exitY=0.438;exitDx=0;exitDy=0;exitPerimeter=0;fontFamily=Times New Roman;" edge="1" parent="1" source="APgzwrlSdgfJDYfN1Lk7-26">
          <mxGeometry relative="1" as="geometry">
            <mxPoint x="817.5" y="1192.6992248062015" as="sourcePoint" />
            <mxPoint x="796.5" y="1192.3" as="targetPoint" />
          </mxGeometry>
        </mxCell>
        <mxCell id="APgzwrlSdgfJDYfN1Lk7-44" value="" style="group;fontFamily=Times New Roman;" vertex="1" connectable="0" parent="1">
          <mxGeometry x="764" y="1320" width="40" height="16" as="geometry" />
        </mxCell>
        <mxCell id="APgzwrlSdgfJDYfN1Lk7-45" value="END" style="shape=process;whiteSpace=wrap;html=1;backgroundOutline=1;strokeWidth=0.5;container=0;fontSize=5;fontFamily=Times New Roman;align=center;" vertex="1" parent="APgzwrlSdgfJDYfN1Lk7-44">
          <mxGeometry y="0.7999999999999997" width="40" height="15.200000000000001" as="geometry" />
        </mxCell>
        <mxCell id="APgzwrlSdgfJDYfN1Lk7-46" value="" style="endArrow=none;html=1;rounded=0;exitX=0;exitY=0.75;exitDx=0;exitDy=0;entryX=1;entryY=0.75;entryDx=0;entryDy=0;strokeWidth=0.5;fontSize=5;fontFamily=Times New Roman;" edge="1" parent="APgzwrlSdgfJDYfN1Lk7-44" source="APgzwrlSdgfJDYfN1Lk7-45" target="APgzwrlSdgfJDYfN1Lk7-45">
          <mxGeometry width="50" height="50" relative="1" as="geometry">
            <mxPoint x="10" y="3.366666666666651" as="sourcePoint" />
            <mxPoint x="16.25" y="-1.2999999999999998" as="targetPoint" />
          </mxGeometry>
        </mxCell>
        <mxCell id="APgzwrlSdgfJDYfN1Lk7-47" style="edgeStyle=orthogonalEdgeStyle;rounded=0;orthogonalLoop=1;jettySize=auto;html=1;endArrow=none;endFill=0;exitX=1;exitY=0.5;exitDx=0;exitDy=0;entryX=0.003;entryY=0.472;entryDx=0;entryDy=0;entryPerimeter=0;fontFamily=Times New Roman;" edge="1" parent="1" source="APgzwrlSdgfJDYfN1Lk7-22" target="APgzwrlSdgfJDYfN1Lk7-31">
          <mxGeometry relative="1" as="geometry">
            <mxPoint x="820.5" y="1237.26" as="targetPoint" />
            <mxPoint x="807" y="1237.26" as="sourcePoint" />
            <Array as="points">
              <mxPoint x="830" y="1237" />
            </Array>
          </mxGeometry>
        </mxCell>
        <mxCell id="APgzwrlSdgfJDYfN1Lk7-48" value="&lt;font style=&quot;font-size: 6px;&quot;&gt;YES&lt;/font&gt;" style="text;html=1;align=center;verticalAlign=middle;whiteSpace=wrap;rounded=0;fontFamily=Times New Roman;fontStyle=1" vertex="1" parent="1">
          <mxGeometry x="781" y="1209.5" width="20" height="11.25" as="geometry" />
        </mxCell>
        <mxCell id="APgzwrlSdgfJDYfN1Lk7-49" value="&lt;font style=&quot;font-size: 6px;&quot;&gt;YES&lt;/font&gt;" style="text;html=1;align=center;verticalAlign=middle;whiteSpace=wrap;rounded=0;fontFamily=Times New Roman;fontStyle=1" vertex="1" parent="1">
          <mxGeometry x="781" y="1251.5" width="20" height="11.25" as="geometry" />
        </mxCell>
        <mxCell id="APgzwrlSdgfJDYfN1Lk7-50" value="&lt;font style=&quot;font-size: 6px;&quot;&gt;YES&lt;/font&gt;" style="text;html=1;align=center;verticalAlign=middle;whiteSpace=wrap;rounded=0;fontFamily=Times New Roman;fontStyle=1" vertex="1" parent="1">
          <mxGeometry x="780" y="1300" width="20" height="11.25" as="geometry" />
        </mxCell>
        <mxCell id="APgzwrlSdgfJDYfN1Lk7-51" value="&lt;font style=&quot;font-size: 6px;&quot;&gt;NO&lt;/font&gt;" style="text;html=1;align=center;verticalAlign=middle;whiteSpace=wrap;rounded=0;fontFamily=Times New Roman;fontStyle=1" vertex="1" parent="1">
          <mxGeometry x="790" y="1181.25" width="20" height="8.75" as="geometry" />
        </mxCell>
        <mxCell id="APgzwrlSdgfJDYfN1Lk7-52" value="&lt;font style=&quot;font-size: 6px;&quot;&gt;NO&lt;/font&gt;" style="text;html=1;align=center;verticalAlign=middle;whiteSpace=wrap;rounded=0;fontFamily=Times New Roman;fontStyle=1" vertex="1" parent="1">
          <mxGeometry x="791.5" y="1226.75" width="20" height="8.75" as="geometry" />
        </mxCell>
        <mxCell id="APgzwrlSdgfJDYfN1Lk7-53" value="&lt;font style=&quot;font-size: 6px;&quot;&gt;NO&lt;/font&gt;" style="text;html=1;align=center;verticalAlign=middle;whiteSpace=wrap;rounded=0;fontFamily=Times New Roman;fontStyle=1" vertex="1" parent="1">
          <mxGeometry x="791.5" y="1272.5" width="20" height="8.75" as="geometry" />
        </mxCell>
      </root>
    </mxGraphModel>
  </diagram>
</mxfile>
